<?xml version="1.0" standalone="no"?>
<!DOCTYPE svg PUBLIC "-//W3C//DTD SVG 20010904//EN"
 "http://www.w3.org/TR/2001/REC-SVG-20010904/DTD/svg10.dtd">
<svg version="1.0" xmlns="http://www.w3.org/2000/svg"
 width="1065.000000pt" height="592.000000pt" viewBox="0 0 1065.000000 592.000000"
 preserveAspectRatio="xMidYMid meet">

<g transform="translate(0.000000,592.000000) scale(0.100000,-0.100000)"
fill="#000000" stroke="none">
<path d="M7 5913 c-4 -3 -7 -1335 -7 -2960 l0 -2953 5325 0 5325 0 0 2944 c0
1619 -3 2951 -6 2960 -6 15 -484 16 -5318 16 -2922 0 -5316 -3 -5319 -7z
m10613 -2953 l0 -2930 -5295 0 -5295 0 0 2930 0 2930 5295 0 5295 0 0 -2930z"/>
<path d="M6175 5621 c-47 -12 -72 -28 -97 -63 -20 -29 -23 -45 -23 -128 0 -80
4 -102 23 -139 l24 -43 -31 -32 c-42 -43 -51 -81 -51 -213 0 -135 13 -203 47
-244 41 -48 79 -63 163 -63 63 -1 80 3 108 23 32 23 34 23 65 6 18 -9 46 -15
62 -13 30 3 30 4 33 70 3 63 2 67 -20 70 -17 2 -22 8 -19 23 2 11 6 91 8 178
l4 157 -70 0 -71 0 0 -62 -1 -63 -30 65 -30 64 28 20 c88 63 110 113 101 236
-5 67 -26 104 -75 132 -35 21 -106 30 -148 19z m75 -205 c0 -61 -4 -87 -15
-96 -26 -22 -35 0 -35 91 0 88 0 89 25 89 25 0 25 -1 25 -84z m41 -570 c-8 -9
-28 -16 -47 -16 -54 0 -64 25 -64 160 l1 115 61 -122 c53 -103 60 -124 49
-137z"/>
<path d="M210 5160 l0 -450 85 0 85 0 2 233 3 232 38 -224 c21 -123 40 -228
43 -233 3 -4 75 -8 160 -8 l154 0 0 450 0 450 -154 0 c-139 0 -155 -2 -160
-17 -2 -10 -22 -99 -43 -198 l-38 -180 -3 198 -2 197 -85 0 -85 0 0 -450z
m419 -2 l-1 -443 -54 260 c-42 203 -52 267 -45 290 5 17 28 99 51 183 23 83
44 152 46 152 2 0 4 -199 3 -442z"/>
<path d="M1220 5540 l0 -71 73 3 72 3 3 68 3 67 -76 0 -75 0 0 -70z"/>
<path d="M1620 5493 l0 -117 -29 34 c-25 30 -35 35 -73 35 -51 0 -75 -18 -89
-67 -13 -45 -12 -574 2 -620 10 -39 48 -68 86 -68 27 0 80 36 88 59 8 27 25
17 25 -15 0 -23 2 -24 70 -24 l70 0 0 450 0 450 -75 0 -75 0 0 -117z m-5 -423
l0 -245 -22 -3 -23 -3 0 251 0 251 23 -3 22 -3 0 -245z"/>
<path d="M3430 5540 l0 -70 75 0 75 0 0 70 0 70 -75 0 -75 0 0 -70z"/>
<path d="M4020 5540 l0 -70 75 0 75 0 0 70 0 70 -75 0 -75 0 0 -70z"/>
<path d="M6747 5578 c2 -18 21 -212 43 -431 22 -220 40 -407 40 -418 0 -17 8
-19 95 -19 92 0 95 1 95 23 0 48 59 599 64 605 3 3 6 -6 6 -19 0 -13 11 -147
25 -298 14 -151 25 -282 25 -292 0 -17 9 -19 95 -19 87 0 95 2 95 19 0 11 18
198 40 418 22 219 41 413 43 431 l3 32 -66 0 -67 0 -16 -232 c-10 -128 -17
-261 -17 -295 0 -118 -16 -63 -28 95 -7 86 -18 219 -24 295 l-11 137 -89 0
c-64 0 -88 -3 -88 -12 0 -7 -11 -114 -25 -237 -14 -124 -25 -245 -26 -270 0
-25 -4 -55 -8 -65 -4 -11 -13 91 -20 225 -6 134 -14 270 -18 302 l-6 57 -81 0
-82 0 3 -32z"/>
<path d="M8630 5160 l0 -450 75 0 75 0 2 303 3 302 23 3 22 3 0 -305 0 -306
75 0 75 0 0 318 c0 176 -4 333 -10 352 -21 75 -114 91 -164 27 l-26 -32 0 118
0 117 -75 0 -75 0 0 -450z"/>
<path d="M10230 5540 l0 -70 75 0 75 0 0 70 0 70 -75 0 -75 0 0 -70z"/>
<path d="M7510 5540 l0 -60 50 0 50 0 0 60 0 60 -50 0 -50 0 0 -60z"/>
<path d="M7660 5540 l0 -60 50 0 50 0 0 60 0 60 -50 0 -50 0 0 -60z"/>
<path d="M942 5441 c-39 -10 -68 -34 -91 -76 -14 -26 -16 -68 -16 -295 0 -261
0 -266 24 -307 29 -51 66 -68 146 -68 120 0 167 55 173 202 l4 93 -76 0 -76 0
0 -90 c0 -89 0 -90 -24 -90 -25 0 -25 0 -28 120 l-3 120 103 0 103 0 -3 149
c-3 134 -5 153 -24 178 -42 57 -133 84 -212 64z m88 -191 c0 -89 0 -90 -25
-90 -25 0 -25 1 -25 90 0 89 0 90 25 90 25 0 25 -1 25 -90z"/>
<path d="M1931 5441 c-18 -5 -46 -22 -62 -38 -43 -42 -51 -110 -47 -373 3
-247 8 -267 71 -314 38 -28 158 -29 200 -2 56 37 70 70 75 177 l5 99 -77 0
-76 0 0 -90 c0 -89 0 -90 -25 -90 l-25 0 0 120 0 120 101 0 100 0 -3 149 c-3
161 -9 179 -69 223 -28 21 -119 31 -168 19z m89 -191 c0 -89 0 -90 -25 -90
-25 0 -25 1 -25 90 0 89 0 90 25 90 25 0 25 -1 25 -90z"/>
<path d="M2418 5434 c-15 -8 -32 -23 -38 -34 -14 -27 -28 -25 -26 3 1 21 -3
22 -71 25 l-73 3 0 -361 0 -360 75 0 75 0 0 305 0 305 25 0 25 0 0 -135 0
-135 76 0 76 0 -4 168 c-3 183 -9 203 -62 222 -37 13 -45 12 -78 -6z"/>
<path d="M2833 5440 c-12 -5 -29 -20 -39 -34 -20 -32 -36 -34 -32 -3 3 21 -1
22 -70 25 l-72 3 2 -358 3 -358 72 -3 73 -3 2 303 3 303 23 3 c22 3 22 3 22
-132 l0 -136 75 0 75 0 -1 153 c-1 159 -4 178 -30 215 -18 26 -72 37 -106 22z"/>
<path d="M3145 5441 c-48 -12 -73 -32 -92 -75 -16 -36 -18 -71 -18 -301 0
-283 3 -298 60 -343 33 -26 111 -37 163 -22 90 24 122 81 122 219 l0 71 -75 0
-75 0 0 -90 c0 -89 0 -90 -25 -90 l-25 0 0 120 0 120 101 0 100 0 -3 149 c-3
165 -10 186 -76 224 -35 20 -113 30 -157 18z m85 -191 c0 -89 0 -90 -25 -90
-25 0 -25 1 -25 90 0 89 0 90 25 90 25 0 25 -1 25 -90z"/>
<path d="M3842 5443 c-12 -2 -32 -18 -44 -34 -26 -35 -40 -37 -36 -6 3 21 -1
22 -69 25 l-73 3 0 -361 0 -360 75 0 75 0 2 303 3 302 23 3 22 3 0 -305 0
-306 75 0 76 0 -3 338 c-3 361 -4 368 -55 391 -24 11 -31 12 -71 4z"/>
<path d="M4280 5443 c-27 -11 -49 -45 -55 -86 -4 -23 -5 -146 -3 -272 3 -199
5 -235 20 -258 36 -53 129 -42 162 21 14 25 15 21 16 -75 l0 -103 -25 0 c-23
0 -25 3 -25 50 l0 50 -76 0 -77 0 6 -62 c9 -106 66 -153 180 -152 76 0 108 17
142 75 19 32 20 55 23 417 l3 382 -70 0 c-69 0 -71 -1 -71 -24 0 -32 -17 -42
-25 -15 -13 39 -82 68 -125 52z m135 -323 c0 -195 0 -195 -22 -198 l-23 -3 0
201 0 201 23 -3 c22 -3 22 -3 22 -198z"/>
<path d="M5218 5434 c-15 -8 -32 -23 -38 -34 -14 -27 -28 -25 -26 3 1 21 -3
22 -71 25 l-73 3 0 -361 0 -360 75 0 75 0 0 305 0 305 25 0 25 0 0 -305 0
-305 75 0 76 0 -3 338 c-3 368 -4 372 -62 392 -37 13 -45 12 -78 -6z"/>
<path d="M5463 5438 c-47 -23 -53 -58 -53 -317 0 -268 6 -302 57 -322 42 -16
96 4 122 44 l21 32 0 -102 0 -103 -25 0 c-23 0 -25 3 -25 50 l0 50 -76 0 -77
0 6 -62 c9 -106 66 -153 180 -152 79 0 111 18 142 80 19 37 20 62 23 417 l3
377 -70 0 c-69 0 -71 -1 -71 -25 0 -30 -15 -32 -30 -4 -11 20 -67 50 -92 48
-7 0 -23 -5 -35 -11z m142 -318 c0 -195 0 -195 -22 -198 l-23 -3 0 201 0 201
23 -3 c22 -3 22 -3 22 -198z"/>
<path d="M7560 5439 c-77 -23 -110 -82 -110 -196 l0 -63 75 0 74 0 3 73 c3 64
5 72 23 72 18 0 20 -8 23 -61 3 -69 2 -71 -103 -137 -75 -49 -89 -81 -94 -216
-4 -138 7 -184 51 -207 42 -22 92 -11 120 26 23 31 38 31 38 -1 0 -17 7 -19
73 -19 l72 0 -5 307 c-5 282 -7 311 -25 347 -11 22 -32 48 -46 58 -30 23 -120
32 -169 17z m86 -606 c-3 -7 -15 -13 -26 -13 -19 0 -20 6 -20 94 0 82 3 97 23
122 l22 29 3 -110 c1 -60 0 -115 -2 -122z"/>
<path d="M7975 5443 c-86 -23 -125 -78 -125 -178 0 -78 28 -135 104 -209 88
-84 96 -99 96 -178 0 -66 -1 -68 -25 -68 -25 0 -25 1 -25 90 l0 90 -76 0 -76
0 4 -92 c5 -106 22 -148 71 -178 67 -41 167 -34 225 15 35 29 52 87 52 172 0
98 -12 121 -105 212 -47 45 -88 93 -91 105 -3 12 -4 42 -2 67 2 36 6 44 23 44
18 0 20 -8 23 -77 l3 -78 74 0 75 0 -1 68 c0 86 -16 128 -59 163 -35 29 -118
45 -165 32z"/>
<path d="M8352 5441 c-39 -10 -68 -34 -91 -76 -14 -26 -16 -68 -16 -295 0
-282 2 -298 51 -342 49 -43 166 -45 227 -4 47 32 61 69 65 174 l4 92 -76 0
-76 0 0 -91 c0 -88 -1 -90 -22 -87 l-23 3 0 260 c0 253 1 260 20 260 18 0 20
-8 23 -77 l3 -78 75 0 76 0 -3 84 c-4 93 -20 126 -77 159 -35 21 -113 30 -160
18z"/>
<path d="M9145 5441 c-48 -12 -73 -32 -92 -75 -16 -36 -18 -71 -18 -301 0
-283 3 -298 60 -343 33 -26 111 -37 163 -22 90 24 122 81 122 219 l0 71 -75 0
-75 0 0 -90 c0 -89 0 -90 -25 -90 l-25 0 0 120 0 120 101 0 100 0 -3 149 c-3
165 -10 186 -76 224 -35 20 -113 30 -157 18z m85 -191 c0 -89 0 -90 -25 -90
-25 0 -25 1 -25 90 0 89 0 90 25 90 25 0 25 -1 25 -90z"/>
<path d="M9633 5440 c-12 -5 -29 -20 -39 -34 -20 -32 -36 -34 -32 -3 3 21 -1
22 -69 25 l-73 3 0 -361 0 -360 75 0 75 0 2 303 3 302 23 3 c22 3 22 3 22
-132 l0 -136 76 0 76 0 -4 171 -3 171 -33 29 c-33 30 -60 35 -99 19z"/>
<path d="M9945 5441 c-48 -12 -73 -32 -92 -75 -16 -36 -18 -71 -18 -301 0
-242 1 -262 20 -294 34 -58 66 -75 142 -75 51 -1 77 4 102 19 62 36 73 63 79
174 l5 101 -77 0 -76 0 0 -90 c0 -89 0 -90 -25 -90 l-25 0 0 120 0 120 101 0
100 0 -3 149 c-3 165 -10 186 -76 224 -35 20 -113 30 -157 18z m85 -191 c0
-89 0 -90 -25 -90 -25 0 -25 1 -25 90 0 89 0 90 25 90 25 0 25 -1 25 -90z"/>
<path d="M1220 5070 l0 -360 75 0 75 0 0 360 0 360 -75 0 -75 0 0 -360z"/>
<path d="M3430 5070 l0 -360 75 0 75 0 0 360 0 360 -75 0 -75 0 0 -360z"/>
<path d="M4020 5070 l0 -360 75 0 75 0 0 360 0 360 -75 0 -75 0 0 -360z"/>
<path d="M4620 5113 c0 -181 4 -334 10 -354 7 -25 20 -41 44 -54 42 -23 79
-14 117 26 33 35 39 36 39 4 0 -24 2 -25 70 -25 l70 0 0 360 0 360 -75 0 -75
0 0 -305 0 -305 -25 0 -25 0 0 305 0 305 -75 0 -75 0 0 -317z"/>
<path d="M10230 5070 l0 -360 75 0 75 0 0 360 0 360 -75 0 -75 0 0 -360z"/>
<path d="M7445 4321 c-105 -27 -169 -97 -169 -185 0 -67 20 -99 129 -206 98
-96 115 -123 115 -177 0 -70 -52 -113 -135 -113 -105 0 -171 64 -199 193 -4
15 -10 27 -15 27 -7 0 -61 -225 -61 -254 0 -4 11 -1 25 8 30 20 66 20 180 0
171 -30 297 14 346 121 22 47 23 66 8 120 -8 30 -37 66 -114 145 -112 115
-125 133 -125 180 0 67 43 109 111 110 80 0 148 -68 165 -163 3 -22 10 -35 14
-30 8 8 60 202 60 223 0 7 -8 5 -22 -4 -25 -18 -84 -21 -121 -7 -36 14 -157
21 -192 12z"/>
<path d="M1200 4310 c0 -5 13 -10 28 -10 16 0 37 -9 46 -19 16 -18 16 -23 -7
-102 -28 -95 -106 -344 -136 -434 -22 -67 -67 -115 -106 -115 -14 0 -25 -4
-25 -10 0 -6 48 -10 125 -10 77 0 125 4 125 10 0 6 -11 10 -23 10 -37 0 -61
33 -55 77 5 35 58 211 126 418 25 79 26 80 33 45 4 -19 20 -143 34 -275 15
-132 30 -251 34 -263 6 -23 9 -21 47 30 40 53 335 435 383 495 14 18 27 31 29
29 6 -7 -145 -485 -162 -511 -18 -28 -53 -45 -92 -45 -13 0 -24 -4 -24 -10 0
-6 68 -10 185 -10 117 0 185 4 185 10 0 6 -9 10 -21 10 -11 0 -30 5 -41 11
-17 9 -19 17 -14 49 6 37 131 446 162 527 19 51 56 83 95 83 16 0 29 5 29 10
0 6 -50 10 -129 10 l-129 0 -55 -72 c-115 -151 -173 -226 -246 -318 l-76 -95
-17 145 c-9 80 -22 189 -29 243 l-11 97 -134 0 c-83 0 -134 -4 -134 -10z"/>
<path d="M4230 4312 c0 -5 15 -13 34 -16 62 -12 64 -2 -75 -438 -64 -201 -81
-228 -140 -228 -16 0 -29 -4 -29 -10 0 -6 66 -10 179 -10 109 0 182 4 186 10
4 6 -5 10 -20 10 -39 0 -65 18 -65 43 0 12 18 80 40 151 22 70 40 130 40 133
0 2 10 3 22 1 13 -2 25 -13 29 -28 4 -14 29 -91 54 -172 l46 -148 115 0 c69 0
114 4 114 10 0 6 -10 10 -23 10 -38 0 -63 38 -97 145 -17 55 -38 120 -46 144
-8 25 -14 48 -14 51 0 4 28 18 63 30 172 63 194 242 37 300 -44 16 -450 27
-450 12z m350 -50 c18 -14 24 -32 28 -74 8 -105 -52 -178 -155 -186 l-56 -5 7
29 c4 16 23 80 42 142 l35 112 38 0 c23 0 48 -8 61 -18z"/>
<path d="M3023 4150 c-24 -10 -37 -39 -27 -64 16 -41 95 -39 109 3 6 21 -9 61
-25 61 -4 0 -14 2 -22 4 -7 3 -23 1 -35 -4z"/>
<path d="M3265 4145 c-38 -7 -58 -13 -42 -14 43 -2 43 -3 -39 -253 -35 -109
-64 -210 -64 -226 0 -40 35 -58 83 -43 41 14 74 45 42 39 -12 -2 -21 4 -23 14
-2 9 31 122 72 250 42 128 76 237 76 241 0 9 -18 8 -105 -8z"/>
<path d="M4980 4140 c-23 -23 -25 -40 -7 -63 21 -27 59 -31 85 -7 12 11 22 27
22 35 0 22 -37 55 -60 55 -11 0 -29 -9 -40 -20z"/>
<path d="M6450 4147 c-52 -8 -61 -11 -42 -18 12 -5 22 -13 22 -20 0 -12 -41
-152 -46 -158 -2 -2 -11 2 -19 9 -14 11 -14 10 -6 -13 28 -72 -83 -294 -143
-285 -19 3 -21 9 -20 63 2 97 78 245 126 245 10 0 18 5 18 10 0 26 -84 -3
-128 -44 -78 -72 -130 -190 -116 -263 6 -31 44 -73 66 -73 27 0 77 35 107 76
19 24 35 43 37 41 2 -2 -2 -20 -8 -40 -10 -34 -9 -40 10 -59 19 -19 25 -20 59
-10 21 6 54 28 73 48 33 35 25 38 -13 6 -51 -44 -35 26 98 426 27 82 34 76
-75 59z"/>
<path d="M8390 4154 c-8 -1 -37 -6 -65 -10 -42 -5 -46 -8 -27 -15 13 -5 22
-17 22 -30 0 -12 -31 -122 -70 -244 -38 -122 -70 -228 -70 -234 0 -8 15 -11
47 -9 l46 3 21 65 c37 113 128 240 172 240 19 0 19 -1 -26 -144 -32 -97 -38
-130 -30 -145 14 -26 41 -34 76 -21 31 12 94 68 94 83 0 5 -12 -2 -26 -17 -56
-56 -57 -29 -3 123 43 122 44 162 8 182 -41 21 -107 -21 -175 -113 -24 -33
-44 -56 -44 -50 0 6 22 82 50 169 27 87 50 161 50 166 0 7 -21 8 -50 1z"/>
<path d="M8810 4100 c-11 -11 -20 -24 -20 -30 0 -13 37 -50 50 -50 13 0 50 37
50 50 0 13 -37 50 -50 50 -5 0 -19 -9 -30 -20z"/>
<path d="M8960 4100 c-11 -11 -20 -24 -20 -30 0 -12 37 -50 48 -50 16 0 52 32
52 46 0 16 -35 54 -50 54 -5 0 -19 -9 -30 -20z"/>
<path d="M2264 3976 c-70 -31 -142 -132 -164 -231 -22 -97 23 -163 92 -134 29
12 98 84 98 103 0 6 -13 -5 -28 -23 -18 -22 -34 -32 -47 -29 -43 8 -13 179 48
270 30 44 73 51 83 13 9 -38 -2 -109 -27 -163 -12 -26 -23 -73 -25 -104 -3
-50 -1 -59 18 -69 31 -17 87 3 128 47 33 35 26 39 -12 6 -9 -7 -22 -11 -27 -7
-13 8 -10 22 40 185 22 68 39 128 39 132 0 5 -20 8 -45 8 -40 0 -47 -3 -56
-27 -8 -20 -13 -24 -16 -13 -9 25 -35 50 -52 50 -9 -1 -30 -7 -47 -14z"/>
<path d="M2645 3971 c-84 -24 -95 -29 -62 -30 38 -1 36 -27 -13 -181 -22 -69
-40 -131 -40 -137 0 -9 16 -13 45 -13 l44 0 18 53 c26 75 95 209 115 221 13 8
22 6 38 -9 20 -18 21 -18 40 1 28 28 36 77 15 97 -9 10 -21 17 -26 17 -21 0
-80 -69 -114 -135 -42 -79 -40 -66 4 50 17 44 31 81 31 83 0 6 -39 -1 -95 -17z"/>
<path d="M2985 3979 c-68 -10 -90 -17 -57 -18 12 -1 25 -8 28 -16 3 -8 -13
-71 -35 -141 -50 -153 -51 -177 -13 -193 21 -9 36 -9 58 -1 31 12 94 68 94 83
0 6 -11 -2 -25 -17 -26 -28 -55 -35 -55 -12 0 8 22 83 50 168 27 84 50 154 50
156 0 3 -27 1 -95 -9z"/>
<path d="M3455 3975 c-38 -7 -60 -13 -47 -14 35 -2 33 -26 -14 -172 -41 -128
-42 -153 -9 -175 44 -29 107 7 193 111 36 44 38 41 17 -28 -30 -100 42 -128
133 -52 18 15 32 32 32 38 0 6 -10 1 -23 -11 -27 -25 -47 -28 -47 -8 0 8 20
80 45 162 25 81 45 149 45 151 0 1 -22 3 -48 3 l-48 0 -22 -69 c-42 -131 -167
-280 -195 -233 -3 4 17 75 44 157 27 83 49 151 49 153 0 4 -33 0 -105 -13z"/>
<path d="M4945 3975 c-38 -7 -60 -13 -47 -14 12 0 25 -8 28 -16 4 -8 -12 -73
-35 -143 -23 -70 -41 -140 -41 -155 0 -33 30 -51 72 -42 30 7 108 69 108 87 0
5 -11 -3 -25 -17 -28 -27 -55 -33 -55 -12 0 8 22 83 50 168 27 85 50 155 50
157 0 4 -33 0 -105 -13z"/>
<path d="M5283 3973 c-124 -43 -223 -213 -178 -306 20 -43 56 -62 115 -61 119
1 240 118 256 247 6 53 -22 102 -71 123 -42 17 -68 17 -122 -3z m91 -78 c-1
-118 -80 -275 -137 -275 -34 0 -47 19 -47 65 0 74 66 238 109 273 9 7 30 12
46 10 l30 -3 -1 -70z"/>
<path d="M5646 3975 c-21 -7 -43 -20 -48 -27 -38 -56 -34 -80 25 -158 57 -73
66 -91 67 -120 1 -83 -115 -58 -141 31 -7 21 -13 38 -15 36 -1 -1 -9 -29 -16
-62 l-14 -61 35 -1 c20 -1 63 -3 96 -5 50 -2 66 1 93 20 43 31 65 75 57 113
-4 17 -31 60 -61 97 -53 66 -60 84 -48 116 8 22 66 21 93 -1 12 -10 28 -35 35
-56 l13 -38 12 56 c7 31 11 58 9 59 -1 2 -37 6 -78 9 -52 5 -87 2 -114 -8z"/>
<path d="M6770 3981 c-138 -28 -264 -193 -231 -302 20 -65 82 -90 170 -69 45
11 138 66 128 77 -3 2 -22 -5 -43 -16 -50 -27 -124 -28 -147 -3 -10 10 -17 35
-17 55 0 32 3 37 28 42 81 16 117 28 147 48 85 58 109 138 49 165 -27 13 -32
13 -84 3z m20 -52 c0 -49 -38 -106 -85 -129 -70 -34 -78 -26 -46 46 45 98 131
153 131 83z"/>
<path d="M7995 3981 c-64 -16 -116 -54 -161 -117 -82 -115 -59 -240 48 -259
50 -9 134 17 178 55 l35 30 -45 -20 c-25 -11 -64 -20 -87 -20 -34 0 -46 5 -63
28 -19 23 -21 36 -17 90 8 104 85 202 158 202 38 0 44 -14 19 -48 -23 -31 -19
-58 11 -67 40 -13 77 41 59 85 -17 42 -67 57 -135 41z"/>
<path d="M8859 3974 c-59 -18 -140 -90 -169 -149 -26 -53 -31 -131 -11 -167
41 -79 192 -66 282 24 16 17 41 52 54 77 52 104 42 176 -29 210 -49 24 -64 25
-127 5z m85 -79 c-3 -147 -101 -307 -163 -268 -40 25 -15 165 50 280 33 57 41
63 84 60 l30 -2 -1 -70z"/>
<path d="M9220 3977 c-52 -8 -61 -11 -42 -18 12 -5 22 -15 22 -23 0 -9 -20
-81 -45 -160 -25 -80 -45 -150 -45 -156 0 -7 18 -10 46 -8 l47 3 17 56 c27 84
53 130 111 193 48 53 89 72 89 42 0 -7 -16 -60 -35 -117 -41 -123 -44 -163
-14 -180 32 -17 87 3 129 46 19 19 29 35 24 35 -6 0 -19 -9 -29 -20 -21 -23
-45 -26 -45 -6 0 8 18 65 40 126 46 129 48 151 18 180 -40 37 -119 -2 -191
-95 -23 -30 -43 -53 -44 -51 -3 3 30 116 44 152 6 16 -2 16 -97 1z"/>
<path d="M3280 3675 c-7 -9 -11 -17 -9 -20 3 -2 10 5 17 15 14 24 10 26 -8 5z"/>
<path d="M4110 3277 c-50 -17 -60 -45 -60 -168 0 -91 3 -110 20 -132 25 -32
79 -42 145 -27 35 8 51 8 53 1 2 -6 15 -11 28 -11 23 0 24 2 24 85 l0 85 -68
0 c-38 0 -71 -3 -74 -6 -10 -10 4 -44 18 -44 9 0 14 -12 14 -35 0 -31 -3 -35
-25 -35 l-25 0 0 125 0 125 25 0 c23 0 25 -4 25 -40 l0 -40 55 0 55 0 0 33 c0
18 -7 42 -15 54 -28 39 -124 54 -195 30z"/>
<path d="M2940 3110 l0 -170 55 0 55 0 0 170 0 170 -55 0 -55 0 0 -170z"/>
<path d="M3090 3110 l0 -170 50 0 50 0 0 110 c0 103 1 110 20 110 19 0 20 -7
20 -110 l0 -110 50 0 50 0 0 119 c0 83 -4 122 -13 129 -24 20 -66 24 -97 9
l-30 -15 0 49 0 49 -50 0 -50 0 0 -170z"/>
<path d="M5570 3255 c0 -23 3 -25 50 -25 47 0 50 2 50 25 0 23 -3 25 -50 25
-47 0 -50 -2 -50 -25z"/>
<path d="M6173 3270 c-12 -5 -25 -21 -29 -35 -3 -14 -10 -25 -15 -25 -5 0 -9
-11 -9 -25 0 -14 5 -25 10 -25 6 0 10 -43 10 -110 l0 -110 50 0 50 0 0 110 c0
91 3 110 15 110 9 0 15 9 15 25 0 16 -6 25 -15 25 -8 0 -15 5 -15 10 0 6 7 10
15 10 9 0 15 9 15 25 0 22 -4 25 -37 24 -21 0 -48 -4 -60 -9z"/>
<path d="M6320 3255 c0 -22 4 -25 35 -25 31 0 35 3 35 25 0 22 -4 25 -35 25
-31 0 -35 -3 -35 -25z"/>
<path d="M6420 3255 c0 -22 4 -25 35 -25 31 0 35 3 35 25 0 22 -4 25 -35 25
-31 0 -35 -3 -35 -25z"/>
<path d="M8093 3270 c-12 -5 -25 -21 -29 -35 -3 -14 -10 -25 -15 -25 -5 0 -9
-11 -9 -25 0 -14 5 -25 10 -25 6 0 10 -43 10 -110 l0 -110 50 0 50 0 0 110 c0
91 3 110 15 110 9 0 15 9 15 25 0 16 -6 25 -15 25 -8 0 -15 5 -15 10 0 6 7 10
15 10 9 0 15 9 15 25 0 22 -4 25 -37 24 -21 0 -48 -4 -60 -9z"/>
<path d="M8250 3255 c0 -22 4 -25 35 -25 31 0 35 3 35 25 0 22 -4 25 -35 25
-31 0 -35 -3 -35 -25z"/>
<path d="M8350 3255 c0 -22 4 -25 35 -25 31 0 35 3 35 25 0 22 -4 25 -35 25
-31 0 -35 -3 -35 -25z"/>
<path d="M8490 3110 l0 -170 50 0 50 0 0 170 0 170 -50 0 -50 0 0 -170z"/>
<path d="M8780 3255 c0 -23 3 -25 50 -25 47 0 50 2 50 25 0 23 -3 25 -50 25
-47 0 -50 -2 -50 -25z"/>
<path d="M5430 3235 c0 -16 -6 -25 -15 -25 -9 0 -15 -9 -15 -25 0 -15 6 -25
14 -25 11 0 15 -22 18 -99 1 -55 6 -103 11 -107 4 -4 32 -9 62 -12 54 -4 55
-4 55 22 0 16 -5 26 -15 26 -12 0 -15 16 -15 85 0 69 3 85 15 85 9 0 15 9 15
25 0 16 -6 25 -15 25 -9 0 -15 9 -15 25 0 23 -3 25 -50 25 -47 0 -50 -2 -50
-25z"/>
<path d="M8630 3235 c0 -16 -6 -25 -15 -25 -9 0 -15 -9 -15 -25 0 -15 6 -25
14 -25 11 0 15 -22 18 -99 1 -55 6 -103 11 -107 4 -4 32 -9 62 -12 54 -4 55
-4 55 22 0 16 -5 26 -15 26 -12 0 -15 16 -15 85 0 69 3 85 15 85 9 0 15 9 15
25 0 16 -6 25 -15 25 -9 0 -15 9 -15 25 0 23 -3 25 -50 25 -47 0 -50 -2 -50
-25z"/>
<path d="M3360 3075 l0 -135 50 0 50 0 0 110 c0 103 1 110 20 110 17 0 20 -7
20 -50 l0 -50 50 0 50 0 0 59 c0 51 -3 62 -22 75 -29 20 -67 20 -96 0 -20 -14
-23 -14 -28 0 -4 11 -19 16 -50 16 l-44 0 0 -135z"/>
<path d="M3682 3199 c-42 -12 -52 -39 -52 -135 0 -87 14 -108 79 -119 87 -15
161 18 161 72 0 21 -4 23 -50 23 -47 0 -50 -2 -50 -25 0 -18 -5 -25 -20 -25
-16 0 -20 7 -20 35 l0 35 70 0 70 0 0 46 c0 25 -5 54 -10 64 -18 34 -108 49
-178 29z m88 -64 c0 -18 -5 -25 -20 -25 -15 0 -20 7 -20 25 0 18 5 25 20 25
15 0 20 -7 20 -25z"/>
<path d="M4405 3199 c-35 -10 -55 -34 -55 -66 0 -21 4 -23 50 -23 47 0 50 2
50 25 0 19 5 25 21 25 15 0 20 -5 17 -22 -2 -18 -16 -28 -61 -44 -32 -11 -63
-27 -68 -35 -16 -25 -10 -78 11 -99 23 -23 43 -25 90 -8 26 9 35 9 38 0 2 -7
23 -12 48 -12 l44 0 0 100 c0 54 -5 111 -12 124 -18 40 -101 57 -173 35z m85
-169 c0 -33 -3 -40 -20 -40 -16 0 -20 7 -20 34 0 31 9 43 33 45 4 1 7 -17 7
-39z"/>
<path d="M4620 3075 l0 -135 50 0 50 0 0 110 c0 103 1 110 20 110 17 0 20 -7
20 -50 l0 -50 50 0 50 0 0 59 c0 51 -3 62 -22 75 -26 19 -46 20 -85 5 -29 -11
-40 -10 -35 4 1 4 -20 7 -48 7 l-50 0 0 -135z"/>
<path d="M4945 3203 c-31 -8 -65 -44 -65 -70 0 -21 4 -23 50 -23 47 0 50 2 50
25 0 19 5 25 21 25 15 0 20 -5 17 -22 -2 -18 -16 -28 -61 -44 -67 -23 -77 -34
-77 -86 0 -59 53 -84 116 -56 22 10 28 10 32 0 2 -7 22 -12 48 -12 l44 0 0
104 c0 94 -2 108 -22 131 -19 21 -34 27 -78 30 -30 2 -64 1 -75 -2z m75 -173
c0 -33 -3 -40 -20 -40 -16 0 -20 7 -20 34 0 31 9 43 33 45 4 1 7 -17 7 -39z"/>
<path d="M5150 3075 l0 -135 50 0 50 0 0 110 c0 103 1 110 20 110 19 0 20 -7
20 -110 l0 -110 50 0 50 0 0 119 c0 113 -1 121 -22 135 -28 20 -55 20 -91 1
-24 -12 -29 -12 -34 0 -3 10 -20 15 -49 15 l-44 0 0 -135z"/>
<path d="M5570 3075 l0 -135 50 0 50 0 0 135 0 135 -50 0 -50 0 0 -135z"/>
<path d="M5775 3202 c-58 -19 -60 -24 -60 -127 0 -109 5 -118 76 -130 85 -15
159 19 159 72 0 21 -4 23 -50 23 -47 0 -50 -2 -50 -25 0 -18 -5 -25 -20 -25
-16 0 -20 7 -20 35 l0 35 70 0 70 0 0 46 c0 25 -5 54 -10 64 -17 31 -110 49
-165 32z m75 -67 c0 -18 -5 -25 -20 -25 -15 0 -20 7 -20 25 0 18 5 25 20 25
15 0 20 -7 20 -25z"/>
<path d="M6290 3095 c0 -102 2 -117 20 -135 24 -24 48 -25 95 -6 31 13 35 13
35 0 0 -10 12 -14 45 -14 l45 0 0 135 0 135 -50 0 -50 0 0 -110 c0 -103 -1
-110 -20 -110 -19 0 -20 7 -20 110 l0 110 -50 0 -50 0 0 -115z"/>
<path d="M6560 3075 l0 -135 50 0 50 0 0 110 c0 103 1 110 20 110 17 0 20 -7
20 -50 l0 -50 50 0 50 0 0 59 c0 51 -3 62 -22 75 -29 20 -67 20 -96 0 -20 -14
-23 -14 -28 0 -4 11 -19 16 -50 16 l-44 0 0 -135z"/>
<path d="M7033 3199 c-38 -11 -57 -41 -49 -74 4 -17 25 -32 71 -54 54 -26 65
-35 65 -56 0 -18 -5 -25 -20 -25 -16 0 -20 7 -20 30 0 29 -1 30 -50 30 -49 0
-50 -1 -50 -30 0 -64 85 -97 183 -69 43 12 63 43 53 84 -5 20 -21 33 -71 55
-49 22 -65 34 -65 50 0 13 7 20 20 20 15 0 20 -7 20 -25 0 -23 3 -25 50 -25
46 0 50 2 50 25 0 59 -93 91 -187 64z"/>
<path d="M7303 3204 c-44 -10 -63 -50 -63 -131 0 -41 5 -83 10 -93 18 -34 103
-49 171 -30 46 13 59 42 59 130 0 93 -21 119 -100 125 -30 2 -65 1 -77 -1z
m77 -129 c0 -78 -2 -85 -20 -85 -18 0 -20 7 -20 85 0 78 2 85 20 85 18 0 20
-7 20 -85z"/>
<path d="M7510 3075 l0 -135 50 0 50 0 0 110 c0 103 1 110 20 110 17 0 20 -7
20 -50 l0 -50 50 0 50 0 0 59 c0 51 -3 62 -22 75 -29 20 -67 20 -96 0 -20 -14
-23 -14 -28 0 -4 11 -19 16 -50 16 l-44 0 0 -135z"/>
<path d="M7803 3195 c-21 -15 -23 -24 -23 -105 0 -80 2 -90 22 -104 28 -20 55
-20 91 -2 27 15 27 15 27 -20 0 -27 -4 -34 -20 -34 -11 0 -20 7 -20 15 0 11
-12 15 -50 15 -38 0 -50 -4 -50 -15 0 -70 205 -87 230 -19 6 14 10 84 10 155
l0 129 -51 0 c-35 0 -48 -3 -43 -12 5 -8 0 -9 -17 -4 -58 16 -85 17 -106 1z
m117 -105 c0 -63 -2 -70 -20 -70 -18 0 -20 7 -20 70 0 63 2 70 20 70 18 0 20
-7 20 -70z"/>
<path d="M8280 3200 c-39 -9 -60 -33 -60 -67 0 -21 4 -23 50 -23 47 0 50 2 50
25 0 19 5 25 21 25 15 0 20 -5 17 -22 -2 -18 -16 -28 -61 -44 -65 -23 -77 -35
-77 -81 0 -59 58 -91 112 -62 14 8 23 8 31 0 6 -6 30 -11 54 -11 l43 0 0 100
c0 99 -11 144 -36 154 -29 11 -110 15 -144 6z m80 -170 c0 -33 -3 -40 -20 -40
-16 0 -20 7 -20 34 0 31 9 43 33 45 4 1 7 -17 7 -39z"/>
<path d="M8780 3075 l0 -135 50 0 50 0 0 135 0 135 -50 0 -50 0 0 -135z"/>
<path d="M8940 3197 c-23 -12 -25 -18 -28 -102 -3 -82 -1 -92 19 -107 26 -22
55 -23 92 -4 27 15 27 15 27 -20 0 -27 -4 -34 -20 -34 -11 0 -20 7 -20 15 0
11 -12 15 -50 15 -38 0 -50 -4 -50 -15 0 -70 205 -87 230 -19 6 14 10 84 10
155 l0 129 -44 0 c-29 0 -46 -5 -49 -15 -5 -12 -10 -12 -34 0 -34 18 -51 18
-83 2z m110 -107 c0 -63 -2 -70 -20 -70 -18 0 -20 7 -20 70 0 63 2 70 20 70
18 0 20 -7 20 -70z"/>
<path d="M9232 3199 c-43 -13 -55 -44 -50 -142 4 -89 12 -101 79 -112 86 -15
159 18 159 70 0 23 -3 25 -50 25 -47 0 -50 -2 -50 -25 0 -18 -5 -25 -20 -25
-16 0 -20 7 -20 35 l0 35 70 0 70 0 0 50 c0 37 -5 54 -21 68 -33 31 -101 40
-167 21z m88 -64 c0 -18 -5 -25 -20 -25 -15 0 -20 7 -20 25 0 18 5 25 20 25
15 0 20 -7 20 -25z"/>
<path d="M1611 3021 c-9 -6 -11 -18 -7 -34 6 -24 3 -26 -36 -31 -210 -25 -290
-29 -557 -22 -297 7 -287 8 -339 -29 -6 -5 21 -95 29 -95 4 0 9 19 11 43 l3
42 110 0 c61 -1 257 -3 437 -5 366 -6 338 1 338 -78 0 -45 28 -102 54 -112 31
-11 37 -3 30 38 -6 35 -5 36 9 17 8 -12 17 -34 19 -50 2 -20 9 -31 22 -33 18
-4 18 0 11 49 -11 72 -12 151 -2 226 l9 61 -29 6 c-71 14 -99 16 -112 7z m66
-233 c-3 -7 -5 -2 -5 12 0 14 2 19 5 13 2 -7 2 -19 0 -25z"/>
<path d="M618 2975 c-32 -43 -21 -56 27 -31 20 11 73 15 204 16 224 1 450 15
463 28 7 7 -98 11 -333 11 l-344 0 -17 -24z"/>
<path d="M580 2895 c-10 -12 -9 -22 5 -51 9 -20 20 -54 22 -75 3 -22 9 -39 14
-39 15 0 21 69 10 101 -6 18 -11 43 -11 55 0 27 -21 32 -40 9z"/>
<path d="M762 2831 c-18 -16 -32 -38 -32 -49 0 -29 48 -72 81 -72 41 0 42 14
3 35 -44 23 -43 47 1 71 39 21 41 38 3 42 -17 2 -35 -7 -56 -27z"/>
<path d="M916 2834 c-26 -26 -30 -60 -9 -88 22 -32 54 -41 95 -30 50 15 47 34
-6 34 -36 0 -48 4 -57 21 -11 21 0 38 24 39 4 0 7 9 7 20 0 24 -32 27 -54 4z"/>
<path d="M1235 2830 c-22 -24 -16 -74 9 -78 15 -3 18 0 13 17 -3 11 1 25 9 32
8 6 14 17 14 24 0 22 -27 25 -45 5z"/>
<path d="M1346 2824 c-13 -34 -7 -64 13 -64 24 0 38 20 21 30 -9 6 -9 12 -1
29 10 18 9 21 -8 21 -10 0 -22 -7 -25 -16z"/>
<path d="M1450 2828 c0 -7 -3 -23 -6 -35 -8 -29 21 -32 36 -4 16 31 12 51 -10
51 -11 0 -20 -6 -20 -12z"/>
<path d="M4020 2691 l0 -49 -30 15 c-31 15 -73 11 -97 -9 -9 -7 -13 -43 -13
-114 0 -95 2 -104 22 -118 28 -20 55 -20 91 -1 24 12 29 12 34 0 3 -10 20 -15
49 -15 l44 0 0 170 0 170 -50 0 -50 0 0 -49z m0 -156 c0 -78 -2 -85 -20 -85
-18 0 -20 7 -20 85 0 78 2 85 20 85 18 0 20 -7 20 -85z"/>
<path d="M4830 2570 l0 -170 50 0 50 0 0 110 c0 103 1 110 20 110 19 0 20 -7
20 -110 l0 -110 50 0 50 0 0 119 c0 113 -1 121 -22 135 -28 20 -55 20 -90 2
l-28 -15 0 50 0 49 -50 0 -50 0 0 -170z"/>
<path d="M6320 2691 l0 -50 -27 15 c-36 18 -63 18 -91 -2 -20 -14 -22 -23 -22
-119 0 -102 1 -105 26 -122 23 -14 32 -15 72 -4 32 8 48 9 50 2 2 -6 24 -11
48 -11 l44 0 0 170 0 170 -50 0 -50 0 0 -49z m0 -156 c0 -78 -2 -85 -20 -85
-18 0 -20 7 -20 85 0 78 2 85 20 85 18 0 20 -7 20 -85z"/>
<path d="M6860 2571 l0 -171 55 0 55 0 0 81 c0 78 1 80 23 77 19 -3 22 -10 25
-48 1 -25 5 -60 7 -77 6 -32 7 -33 58 -33 l52 0 -5 80 c-5 83 -14 100 -52 100
-29 0 -20 17 12 23 33 7 47 39 36 82 -10 37 -41 48 -158 53 l-108 5 0 -172z
m160 79 c0 -36 -2 -40 -25 -40 -22 0 -25 4 -25 40 0 36 3 40 25 40 23 0 25 -4
25 -40z"/>
<path d="M7430 2715 c0 -23 3 -25 50 -25 47 0 50 2 50 25 0 23 -3 25 -50 25
-47 0 -50 -2 -50 -25z"/>
<path d="M7830 2715 c0 -23 3 -25 50 -25 47 0 50 2 50 25 0 23 -3 25 -50 25
-47 0 -50 -2 -50 -25z"/>
<path d="M656 2691 c-12 -18 65 -29 244 -36 269 -9 496 -21 506 -27 5 -4 41
-9 79 -12 154 -13 196 -23 229 -54 61 -57 82 -74 125 -103 25 -16 52 -29 61
-29 24 0 38 -20 35 -50 -2 -33 -25 -37 -262 -43 l-193 -5 0 44 c0 40 2 44 24
44 14 0 28 5 31 10 3 6 -3 10 -14 10 -18 0 -20 5 -15 33 l6 32 -26 -28 -26
-28 -242 7 c-213 6 -247 5 -273 -9 -28 -15 -15 -16 233 -17 l262 0 0 -55 0
-55 -117 0 c-65 0 -148 -3 -185 -6 l-67 -7 4 39 5 39 -15 -41 c-14 -36 -21
-42 -53 -48 -53 -8 -160 -7 -166 2 -2 4 6 30 20 57 13 28 22 56 19 63 -2 6 2
12 10 12 20 0 18 27 -5 75 -25 54 -54 89 -69 84 -9 -3 -6 -13 8 -31 21 -26 28
-83 13 -103 -4 -6 -77 -10 -182 -10 -177 0 -250 -8 -250 -26 0 -10 346 -4 399
7 20 4 22 2 16 -13 -4 -10 -10 -42 -13 -70 l-4 -53 -69 0 c-37 0 -71 5 -74 10
-9 15 -25 12 -25 -5 0 -10 -10 -15 -30 -15 -16 0 -30 -5 -30 -11 0 -7 11 -9
27 -6 53 10 63 -5 63 -92 0 -89 4 -95 68 -106 34 -5 42 -4 42 8 0 22 -28 47
-51 47 -16 0 -19 7 -16 48 1 26 -2 57 -6 69 -7 20 -4 22 68 28 77 8 105 -1
105 -31 0 -8 5 -14 10 -14 6 0 8 11 4 25 l-6 25 76 0 76 0 0 -28 c0 -16 7 -37
15 -48 21 -28 18 -45 -18 -85 -22 -25 -47 -39 -81 -48 -213 -53 -376 -200
-493 -447 -34 -72 -38 -88 -41 -179 -5 -144 35 -299 110 -418 26 -40 42 -53
112 -86 45 -21 99 -51 121 -65 67 -46 188 -69 360 -68 146 0 231 17 305 60 53
31 197 173 223 219 17 30 17 34 2 57 -16 25 -16 25 12 32 15 4 36 14 46 22 16
14 17 12 17 -26 0 -54 24 -171 52 -257 21 -63 26 -70 51 -73 16 -2 34 2 42 8
8 6 23 9 35 5 16 -5 19 -11 13 -28 -12 -32 -6 -122 13 -191 28 -104 30 -101
-51 -100 -38 0 -110 6 -160 13 -140 21 -448 16 -675 -9 -303 -33 -425 -54
-425 -71 0 -23 93 -27 290 -11 107 9 313 15 510 15 277 0 344 -3 415 -17 182
-38 185 -37 176 76 -3 40 -9 119 -12 175 -5 93 -8 105 -30 122 l-24 19 42 7
c79 13 116 46 149 134 41 110 71 381 72 651 1 63 3 107 5 97 2 -10 16 -20 30
-23 l27 -5 0 -132 c0 -73 2 -159 5 -192 5 -56 4 -60 -17 -63 -29 -4 -29 -13 0
-39 17 -16 27 -19 45 -12 35 13 45 53 33 135 -8 57 -8 78 3 100 8 16 19 67 26
114 9 71 9 91 -4 120 -21 51 -49 72 -103 77 l-48 5 -1 67 c-1 78 -16 113 -73
164 -38 34 -45 37 -104 37 -35 0 -89 -5 -120 -11 -53 -11 -57 -14 -57 -39 0
-26 2 -27 43 -23 173 17 182 17 195 -11 33 -73 40 -279 22 -626 -20 -358 -44
-437 -138 -456 -36 -7 -38 -4 -18 34 7 15 18 54 24 87 6 33 18 92 26 130 30
143 46 315 46 504 0 116 -4 192 -10 196 -5 3 -10 24 -10 46 0 40 -14 53 -22
21 -3 -10 -6 -61 -7 -113 -5 -244 -37 -579 -56 -579 -2 0 -11 26 -21 58 -20
66 -24 226 -6 257 9 17 11 9 12 -45 0 -36 4 -71 9 -79 17 -26 31 120 29 304 0
99 1 188 3 199 3 11 -6 26 -24 39 -26 20 -30 20 -54 7 -31 -18 -81 -113 -100
-190 -18 -71 -30 -380 -16 -380 16 0 21 20 38 157 20 164 31 206 66 250 16 19
29 40 29 44 0 5 5 9 10 9 6 0 10 -32 10 -76 0 -62 -4 -83 -25 -117 -56 -96
-71 -275 -34 -399 11 -38 30 -79 41 -90 l21 -21 -24 -110 c-14 -61 -30 -112
-35 -114 -21 -7 -83 183 -84 254 0 37 -25 67 -51 60 -11 -3 -21 -1 -24 4 -9
13 -34 -1 -41 -23 -3 -11 -8 -17 -11 -14 -3 3 5 42 18 88 16 57 23 110 23 170
0 48 4 84 8 81 5 -2 15 1 24 7 18 16 1 40 -27 40 -13 0 -19 7 -19 21 0 12 -9
37 -21 55 -11 19 -18 38 -14 43 3 6 -19 48 -50 95 -49 74 -66 91 -132 132
-120 74 -256 123 -350 124 -18 0 -33 5 -33 10 0 6 4 10 9 10 24 0 22 45 -4 96
-15 30 -25 60 -22 67 11 30 377 45 377 15 0 -5 -16 -31 -35 -59 -37 -54 -47
-109 -20 -109 8 0 15 6 15 14 0 8 20 39 45 69 27 34 45 66 45 81 l0 26 223 0
c210 -1 220 -2 192 -17 -49 -26 -60 -42 -47 -64 7 -10 12 -36 12 -58 0 -50 21
-73 58 -65 15 4 31 10 35 14 5 4 9 50 9 101 1 52 5 99 10 106 5 6 6 34 2 62
-5 41 -13 56 -38 76 -17 14 -36 29 -42 34 -129 104 -176 141 -210 164 l-41 28
-489 4 c-269 2 -496 6 -505 10 -10 3 -20 2 -23 -4z m523 -667 c20 -4 30 -11
27 -19 -3 -8 8 -15 30 -20 53 -10 114 -38 167 -79 46 -35 72 -40 61 -12 -3 8
-1 17 4 20 10 6 102 -86 102 -102 0 -17 -13 -22 -27 -10 -24 19 -23 4 2 -58
29 -69 33 -119 10 -110 -20 7 -19 4 10 -94 75 -251 -12 -460 -238 -575 -82
-41 -103 -48 -182 -54 -122 -10 -232 2 -298 32 -66 30 -117 89 -174 199 -49
97 -59 160 -44 272 12 87 60 191 131 284 22 29 40 57 40 62 0 28 -96 -10 -127
-50 -7 -8 -13 -11 -13 -6 0 16 79 107 132 150 29 24 78 58 108 75 62 36 31 32
-45 -7 -65 -33 -142 -90 -186 -139 -91 -101 -159 -283 -159 -427 0 -123 52
-288 113 -353 11 -13 15 -23 9 -23 -18 0 -97 120 -122 185 -48 125 -26 354 47
498 90 179 246 320 385 349 l54 11 46 -47 c27 -28 48 -43 52 -37 8 12 -6 42
-28 60 -9 8 -13 17 -10 22 6 10 77 12 123 3z m256 -1100 c-59 -49 -166 -90
-117 -44 21 20 117 68 137 69 6 0 -3 -11 -20 -25z"/>
<path d="M3340 2555 c0 -102 2 -117 20 -135 22 -22 46 -25 82 -11 26 10 44 9
41 -1 -2 -5 20 -8 47 -8 l50 0 0 135 0 135 -50 0 -50 0 0 -110 c0 -103 -1
-110 -20 -110 -19 0 -20 7 -20 110 l0 110 -50 0 -50 0 0 -115z"/>
<path d="M3610 2535 l0 -135 50 0 50 0 0 110 c0 103 1 110 20 110 19 0 20 -7
20 -110 l0 -110 50 0 50 0 0 118 c0 64 -4 122 -8 129 -12 19 -59 26 -98 13
-28 -10 -39 -10 -42 -1 -2 6 -24 11 -48 11 l-44 0 0 -135z"/>
<path d="M4353 2659 c-38 -11 -57 -41 -49 -75 5 -19 23 -32 71 -54 55 -25 65
-33 65 -55 0 -18 -5 -25 -20 -25 -16 0 -20 7 -20 30 0 29 -1 30 -50 30 -48 0
-50 -1 -50 -28 0 -38 17 -57 63 -72 76 -24 177 10 177 60 0 38 -14 53 -76 81
-48 21 -64 33 -64 49 0 13 7 20 20 20 15 0 20 -7 20 -25 0 -23 3 -25 50 -25
46 0 50 2 50 25 0 58 -94 91 -187 64z"/>
<path d="M4613 2655 c-38 -16 -47 -51 -41 -151 5 -76 16 -89 83 -99 47 -8 117
8 140 31 8 8 15 29 15 45 0 28 -1 29 -50 29 -49 0 -50 -1 -50 -30 0 -23 -4
-30 -20 -30 -18 0 -20 7 -20 85 0 78 2 85 20 85 15 0 20 -7 20 -25 0 -23 3
-25 50 -25 46 0 50 2 50 25 0 61 -114 96 -197 60z"/>
<path d="M5152 2659 c-21 -6 -36 -19 -42 -35 -14 -35 -12 -148 2 -179 14 -32
73 -49 137 -40 71 10 84 24 89 100 5 83 -3 127 -28 142 -27 18 -118 24 -158
12z m88 -124 c0 -78 -2 -85 -20 -85 -18 0 -20 7 -20 85 0 78 2 85 20 85 18 0
20 -7 20 -85z"/>
<path d="M5370 2535 l0 -135 50 0 50 0 0 110 c0 103 1 110 20 110 19 0 20 -7
20 -110 l0 -110 50 0 50 0 0 118 c0 64 -4 122 -8 129 -12 19 -59 26 -98 13
-28 -10 -39 -10 -42 -1 -2 6 -24 11 -48 11 l-44 0 0 -135z"/>
<path d="M5692 2659 c-21 -6 -36 -19 -42 -35 -13 -33 -13 -160 0 -184 23 -43
171 -49 211 -9 10 10 19 30 19 44 0 23 -3 25 -50 25 -47 0 -50 -2 -50 -25 0
-18 -5 -25 -20 -25 -16 0 -20 7 -20 35 l0 35 70 0 70 0 0 48 c0 60 -15 81 -65
92 -49 12 -80 11 -123 -1z m88 -64 c0 -18 -5 -25 -20 -25 -15 0 -20 7 -20 25
0 18 5 25 20 25 15 0 20 -7 20 -25z"/>
<path d="M5910 2535 l0 -135 50 0 50 0 0 110 c0 103 1 110 20 110 19 0 20 -7
20 -110 l0 -110 50 0 50 0 0 119 c0 113 -1 121 -22 135 -28 20 -55 20 -91 1
-24 -12 -29 -12 -34 0 -3 10 -20 15 -49 15 l-44 0 0 -135z"/>
<path d="M6505 2661 c-17 -3 -35 -16 -42 -31 -15 -29 -17 -148 -3 -184 12 -32
74 -50 142 -41 57 8 88 33 88 70 0 23 -3 25 -50 25 -47 0 -50 -2 -50 -25 0
-18 -5 -25 -20 -25 -16 0 -20 7 -20 35 l0 35 70 0 70 0 0 48 c0 59 -13 77 -65
91 -43 12 -73 12 -120 2z m85 -66 c0 -18 -5 -25 -20 -25 -15 0 -20 7 -20 25 0
18 5 25 20 25 15 0 20 -7 20 -25z"/>
<path d="M7212 2659 c-41 -12 -52 -39 -52 -133 0 -86 10 -104 69 -117 89 -20
171 12 171 66 0 23 -4 25 -50 25 -47 0 -50 -2 -50 -25 0 -18 -5 -25 -20 -25
-16 0 -20 7 -20 35 l0 35 70 0 70 0 0 48 c0 60 -15 81 -65 92 -49 12 -80 11
-123 -1z m88 -64 c0 -18 -5 -25 -20 -25 -15 0 -20 7 -20 25 0 18 5 25 20 25
15 0 20 -7 20 -25z"/>
<path d="M7430 2535 l0 -135 50 0 50 0 0 135 0 135 -50 0 -50 0 0 -135z"/>
<path d="M7560 2535 l0 -135 50 0 50 0 0 110 c0 103 1 110 20 110 19 0 20 -7
20 -110 l0 -110 50 0 50 0 0 119 c0 83 -4 122 -13 129 -24 21 -66 24 -97 8
-27 -13 -32 -13 -37 0 -3 9 -20 14 -49 14 l-44 0 0 -135z"/>
<path d="M7830 2535 l0 -135 50 0 50 0 0 135 0 135 -50 0 -50 0 0 -135z"/>
<path d="M7990 2657 c-23 -12 -25 -18 -28 -102 -3 -82 -1 -92 19 -107 26 -22
55 -23 92 -4 27 15 27 15 27 -20 0 -27 -4 -34 -20 -34 -11 0 -20 7 -20 15 0
11 -12 15 -50 15 -56 0 -65 -15 -31 -49 38 -38 164 -38 202 0 17 17 19 35 19
159 l0 140 -44 0 c-29 0 -46 -5 -49 -15 -5 -12 -10 -12 -34 0 -34 18 -51 18
-83 2z m110 -107 c0 -63 -2 -70 -20 -70 -18 0 -20 7 -20 70 0 63 2 70 20 70
18 0 20 -7 20 -70z"/>
<path d="M8230 2553 c0 -65 4 -125 9 -132 11 -17 70 -20 115 -7 21 7 27 6 22
-3 -5 -8 8 -11 43 -11 l51 0 0 135 0 135 -50 0 -50 0 0 -110 c0 -103 -1 -110
-20 -110 -19 0 -20 7 -20 110 l0 110 -50 0 -50 0 0 -117z"/>
<path d="M8500 2535 l0 -135 50 0 50 0 0 110 c0 103 1 110 20 110 19 0 20 -7
20 -110 l0 -110 50 0 50 0 0 119 c0 113 -1 121 -22 135 -28 20 -55 20 -91 1
-24 -12 -29 -12 -34 0 -3 10 -20 15 -49 15 l-44 0 0 -135z"/>
<path d="M8792 2654 c-20 -14 -22 -24 -22 -104 0 -80 2 -90 22 -104 28 -20 55
-20 91 -2 27 15 27 15 27 -20 0 -27 -4 -34 -20 -34 -11 0 -20 7 -20 15 0 11
-12 15 -50 15 -38 0 -50 -4 -50 -15 0 -43 81 -73 159 -60 74 12 76 16 79 179
l3 146 -44 0 c-30 0 -47 -5 -50 -15 -5 -12 -10 -12 -34 0 -36 19 -63 19 -91
-1z m118 -104 c0 -63 -2 -70 -20 -70 -18 0 -20 7 -20 70 0 63 2 70 20 70 18 0
20 -7 20 -70z"/>
<path d="M535 2574 c-11 -9 -70 -41 -132 -71 -128 -64 -134 -71 -130 -178 3
-91 8 -98 61 -89 22 4 65 7 94 5 41 -2 52 1 52 13 0 16 -14 21 -92 31 -40 5
-48 10 -48 27 0 11 -7 35 -16 54 -16 32 -15 36 1 54 10 11 22 20 27 20 36 0
228 119 228 141 0 14 -23 10 -45 -7z"/>
<path d="M1756 2205 c-9 -14 -19 -39 -23 -56 -6 -31 -9 -33 -95 -64 -28 -10
-50 -24 -53 -36 -11 -34 4 -39 42 -14 20 14 48 25 63 25 46 0 79 34 86 91 4
27 11 52 15 55 14 8 11 24 -5 24 -7 0 -21 -11 -30 -25z"/>
<path d="M297 2196 c-3 -7 -1 -47 4 -87 7 -48 7 -307 0 -739 -8 -557 -12 -679
-27 -751 -20 -101 -13 -239 12 -239 8 0 14 10 14 23 0 12 18 74 39 137 63 187
65 205 52 398 -15 236 -14 471 5 674 10 103 14 212 10 270 -5 97 -39 250 -61
278 -7 8 -15 23 -18 33 -8 20 -23 22 -30 3z"/>
<path d="M6459 1991 c-16 -16 -29 -34 -29 -40 0 -19 38 -12 45 9 12 39 75 22
75 -21 0 -25 -5 -30 -30 -35 -36 -8 -44 -44 -9 -44 54 0 80 -57 43 -94 -31
-32 -104 -11 -104 30 0 8 -9 14 -20 14 -24 0 -24 -1 -6 -44 24 -59 102 -70
153 -24 39 37 38 106 -3 131 -10 6 -9 13 3 38 19 38 4 81 -33 98 -38 17 -53
14 -85 -18z"/>
<path d="M6720 2008 c-13 -7 -31 -26 -40 -41 -14 -25 -13 -30 2 -58 17 -29 17
-31 -3 -58 -26 -35 -19 -78 17 -112 77 -72 206 29 145 112 -20 27 -21 31 -6
51 21 31 19 52 -7 82 -28 31 -74 41 -108 24z m84 -50 c15 -25 -4 -52 -38 -56
-47 -6 -74 36 -44 66 18 18 69 11 82 -10z m0 -111 c12 -9 17 -23 14 -47 -2
-27 -9 -37 -30 -44 -46 -16 -82 3 -86 44 -4 39 16 60 58 60 14 0 34 -6 44 -13z"/>
<path d="M7740 2008 c-13 -7 -31 -26 -40 -41 -14 -25 -13 -30 3 -58 16 -30 16
-32 -3 -56 -28 -36 -25 -67 9 -105 24 -27 36 -33 69 -33 77 0 125 79 83 135
-19 26 -19 31 -6 57 20 38 19 47 -7 77 -28 31 -74 41 -108 24z m74 -34 c9 -4
16 -18 16 -34 0 -29 -15 -40 -54 -40 -26 0 -46 17 -46 40 0 33 42 50 84 34z
m7 -124 c13 -7 19 -21 19 -45 0 -38 -20 -55 -64 -55 -33 0 -56 25 -56 60 0 44
53 65 101 40z"/>
<path d="M7990 2003 c-46 -24 -60 -54 -60 -138 0 -85 14 -114 64 -139 32 -16
44 -17 75 -7 61 18 75 42 79 130 2 42 -1 88 -7 103 -21 55 -94 80 -151 51z
m104 -39 c12 -11 16 -36 16 -99 0 -96 -11 -115 -66 -115 -68 0 -74 9 -74 115
0 79 3 96 18 104 26 16 89 13 106 -5z"/>
<path d="M8700 1995 c0 -18 5 -25 20 -25 15 0 20 7 20 25 0 18 -5 25 -20 25
-15 0 -20 -7 -20 -25z"/>
<path d="M3250 1860 c0 -143 1 -150 20 -150 18 0 20 7 20 65 l0 65 70 0 70 0
0 -65 c0 -58 2 -65 20 -65 19 0 20 7 20 150 0 143 -1 150 -20 150 -18 0 -20
-7 -20 -65 l0 -65 -70 0 -70 0 0 65 c0 58 -2 65 -20 65 -19 0 -20 -7 -20 -150z"/>
<path d="M3930 1860 c0 -143 1 -150 20 -150 11 0 20 7 20 15 0 19 0 19 39 -1
42 -21 92 -11 134 26 27 24 32 35 32 75 0 40 -5 51 -32 75 -42 37 -92 47 -134
26 -18 -9 -34 -16 -36 -16 -1 0 -3 23 -3 50 0 43 -3 50 -20 50 -19 0 -20 -7
-20 -150z m187 18 c33 -30 31 -80 -3 -107 -58 -46 -144 -13 -144 55 0 66 96
100 147 52z"/>
<path d="M4750 1860 c0 -143 1 -150 20 -150 18 0 20 7 20 61 l0 62 48 -61 c34
-44 54 -61 71 -62 27 0 29 -4 -42 78 l-37 42 41 53 c33 41 38 53 25 55 -9 2
-28 -10 -42 -28 -14 -17 -35 -41 -45 -53 -18 -22 -18 -21 -19 66 0 80 -2 87
-20 87 -19 0 -20 -7 -20 -150z"/>
<path d="M5150 1975 c0 -24 -5 -35 -15 -35 -8 0 -15 -9 -15 -20 0 -11 7 -20
15 -20 12 0 15 -17 15 -95 0 -88 1 -95 20 -95 19 0 20 7 20 95 0 78 3 95 15
95 8 0 15 9 15 20 0 11 -7 20 -15 20 -10 0 -15 11 -15 35 0 28 -4 35 -20 35
-16 0 -20 -7 -20 -35z"/>
<path d="M7200 1990 c0 -16 7 -20 30 -20 l30 0 0 -130 c0 -123 1 -130 20 -130
19 0 20 7 20 150 l0 150 -50 0 c-43 0 -50 -3 -50 -20z"/>
<path d="M7450 1990 c0 -16 7 -20 30 -20 l30 0 0 -130 c0 -123 1 -130 20 -130
19 0 20 7 20 150 l0 150 -50 0 c-43 0 -50 -3 -50 -20z"/>
<path d="M8290 1998 c0 -6 21 -74 46 -150 60 -180 71 -183 109 -26 32 125 31
125 66 -22 32 -137 44 -128 115 82 39 116 41 128 24 128 -25 0 -29 -7 -66
-130 -18 -58 -34 -98 -37 -90 -3 8 -12 42 -20 75 -9 33 -21 79 -27 103 -18 69
-34 52 -65 -65 -15 -60 -31 -111 -34 -115 -4 -5 -22 44 -40 107 -27 94 -37
115 -52 115 -11 0 -19 -5 -19 -12z"/>
<path d="M3585 1926 c-45 -20 -67 -50 -69 -94 -2 -103 121 -157 201 -87 36 30
23 43 -21 20 -55 -30 -146 -7 -146 37 0 4 47 8 105 8 93 0 105 2 105 18 0 31
-40 83 -75 98 -42 17 -61 17 -100 0z m113 -42 c38 -27 25 -34 -63 -34 -47 0
-85 4 -85 9 0 19 45 41 85 41 22 0 51 -7 63 -16z"/>
<path d="M3800 1825 c0 -108 1 -115 20 -115 17 0 19 8 22 88 3 79 5 88 26 97
25 11 32 51 7 41 -8 -3 -22 -9 -32 -13 -11 -4 -14 -3 -9 5 5 8 0 12 -13 12
-20 0 -21 -6 -21 -115z"/>
<path d="M4263 1925 c-43 -18 -76 -71 -68 -109 18 -97 128 -135 202 -71 35 29
23 45 -16 22 -40 -24 -106 -22 -131 3 -11 11 -20 25 -20 30 0 6 42 10 106 10
l106 0 -7 28 c-10 43 -34 73 -70 88 -42 17 -61 17 -102 -1z m115 -41 c38 -27
25 -34 -63 -34 -47 0 -85 4 -85 9 0 19 45 41 85 41 22 0 51 -7 63 -16z"/>
<path d="M4533 1925 c-35 -15 -73 -67 -73 -100 0 -34 39 -86 77 -101 46 -20
97 -11 129 21 43 43 24 62 -23 25 -55 -43 -143 -10 -143 54 0 67 86 101 143
56 24 -19 47 -26 47 -14 0 19 -26 48 -55 60 -42 17 -61 17 -102 -1z"/>
<path d="M4975 1915 c-40 -39 -32 -62 30 -91 31 -15 40 -25 40 -44 0 -20 -6
-26 -28 -28 -22 -3 -30 1 -34 17 -3 12 -14 21 -24 21 -22 0 -23 -1 -8 -34 16
-33 57 -50 92 -37 63 24 54 105 -13 127 -23 8 -36 19 -38 33 -3 17 2 21 27 21
17 0 31 -4 31 -10 0 -5 9 -10 19 -10 27 0 16 34 -15 49 -37 16 -52 14 -79 -14z"/>
<path d="M5260 1825 c0 -108 1 -115 20 -115 17 0 19 8 22 88 3 79 5 88 26 97
25 11 32 51 7 41 -8 -3 -22 -9 -30 -12 -8 -3 -15 -1 -15 5 0 6 -7 11 -15 11
-12 0 -15 -19 -15 -115z"/>
<path d="M5443 1925 c-35 -15 -73 -67 -73 -101 0 -35 42 -87 84 -103 35 -13
44 -13 82 1 36 13 44 13 44 2 0 -8 9 -14 20 -14 19 0 20 7 20 115 0 108 -1
115 -20 115 -11 0 -20 -7 -20 -14 0 -13 -4 -13 -35 0 -42 17 -61 17 -102 -1z
m114 -47 c35 -38 37 -62 7 -97 -20 -25 -34 -31 -64 -31 -52 0 -90 31 -90 75 0
67 101 103 147 53z"/>
<path d="M5685 1915 c-14 -13 -25 -31 -25 -40 0 -19 33 -48 62 -55 48 -12 50
-70 2 -70 -17 0 -28 6 -31 20 -3 11 -14 20 -24 20 -23 0 -23 -3 -4 -39 26 -51
103 -48 127 5 17 36 -6 75 -52 90 -44 15 -56 54 -16 54 14 0 28 -4 31 -10 7
-12 45 -14 45 -2 -1 21 -44 52 -75 52 -9 0 -27 -11 -40 -25z"/>
<path d="M5883 1930 c-56 -23 -49 -78 15 -108 28 -13 37 -23 37 -42 0 -20 -6
-26 -28 -28 -22 -3 -30 1 -34 17 -3 12 -14 21 -24 21 -27 0 -23 -17 11 -52 25
-24 36 -29 58 -24 31 8 62 40 62 65 0 28 -28 59 -65 71 -46 15 -50 50 -5 50
17 0 30 -4 30 -10 0 -5 9 -10 19 -10 27 0 16 34 -15 49 -29 13 -31 13 -61 1z"/>
<path d="M6073 1925 c-35 -15 -73 -67 -73 -100 0 -34 39 -86 77 -101 45 -19
93 -12 130 21 36 30 23 43 -21 20 -55 -30 -146 -7 -146 37 0 4 48 8 106 8
l106 0 -7 28 c-10 43 -34 73 -70 88 -42 17 -61 17 -102 -1z m115 -41 c38 -27
25 -34 -63 -34 -47 0 -85 4 -85 9 0 19 45 41 85 41 22 0 51 -7 63 -16z"/>
<path d="M8700 1825 c0 -108 1 -115 20 -115 19 0 20 7 20 115 0 108 -1 115
-20 115 -19 0 -20 -7 -20 -115z"/>
<path d="M8853 1925 c-89 -38 -88 -159 1 -202 42 -20 95 -11 133 22 35 29 23
45 -16 22 -46 -27 -120 -18 -143 17 -16 23 -5 26 98 26 l106 0 -7 28 c-10 43
-34 73 -70 88 -42 17 -61 17 -102 -1z m115 -41 c38 -27 25 -34 -63 -34 -47 0
-85 4 -85 9 0 19 45 41 85 41 22 0 51 -7 63 -16z"/>
<path d="M9070 1825 c0 -108 1 -115 20 -115 18 0 20 7 20 79 0 89 12 111 60
111 48 0 60 -22 60 -111 0 -72 2 -79 20 -79 18 0 20 7 20 70 0 89 -17 132 -60
150 -26 11 -38 11 -68 0 -26 -9 -37 -10 -40 -1 -2 6 -10 11 -18 11 -11 0 -14
-22 -14 -115z"/>
<path d="M6932 1715 c2 -48 11 -57 28 -26 18 34 13 71 -10 71 -17 0 -19 -6
-18 -45z"/>
<path d="M1670 1721 c0 -5 5 -13 10 -16 6 -3 10 -2 10 4 0 5 -4 13 -10 16 -5
3 -10 2 -10 -4z"/>
<path d="M4734 1510 c-21 -8 -54 -46 -54 -62 0 -18 38 -7 43 13 4 16 12 20 39
17 30 -3 33 -6 33 -38 0 -31 -3 -35 -27 -38 -34 -4 -41 -42 -7 -42 55 0 81
-57 41 -93 -35 -32 -102 -12 -102 29 0 8 -9 14 -20 14 -24 0 -24 -3 -4 -46 37
-78 160 -60 179 27 7 29 -8 68 -32 82 -11 7 -11 12 2 30 22 32 18 55 -14 88
-31 30 -42 33 -77 19z"/>
<path d="M4973 1501 c-45 -28 -53 -49 -53 -139 0 -89 15 -119 70 -142 38 -16
97 -1 126 31 22 25 32 156 15 201 -22 57 -104 83 -158 49z m108 -31 c17 -9 19
-22 19 -100 0 -102 -10 -120 -66 -120 -68 0 -74 9 -74 115 0 79 3 96 18 104
22 14 78 14 103 1z"/>
<path d="M5630 1508 c-13 -7 -31 -25 -39 -39 -13 -23 -12 -29 3 -60 15 -31 15
-35 1 -45 -9 -7 -19 -28 -22 -48 -5 -31 -1 -40 30 -71 47 -47 86 -48 133 -1
19 19 34 44 34 56 0 23 -17 61 -32 71 -5 3 -2 19 7 35 20 39 19 48 -7 78 -28
31 -74 41 -108 24z m74 -34 c10 -4 16 -18 16 -35 0 -22 -6 -30 -25 -35 -41
-10 -75 3 -75 29 0 40 38 59 84 41z m7 -124 c23 -13 26 -62 3 -84 -18 -19 -75
-21 -92 -4 -7 7 -12 26 -12 43 0 17 5 36 12 43 15 15 63 16 89 2z"/>
<path d="M6012 1500 c-42 -26 -52 -54 -52 -146 0 -70 2 -78 29 -104 49 -50
105 -52 158 -6 25 22 28 31 31 103 2 43 -1 90 -7 105 -22 58 -104 83 -159 48z
m109 -30 c17 -9 19 -22 19 -100 0 -102 -10 -120 -66 -120 -68 0 -74 9 -74 115
0 79 3 96 18 104 22 14 78 14 103 1z"/>
<path d="M6274 1506 c-51 -23 -64 -51 -64 -136 0 -90 13 -119 64 -144 32 -16
44 -17 76 -7 61 18 80 50 80 137 0 40 -4 84 -10 98 -19 50 -92 76 -146 52z
m97 -36 c17 -9 19 -22 19 -100 0 -102 -10 -120 -68 -120 -64 1 -72 15 -72 118
0 76 3 93 18 101 22 14 78 14 103 1z"/>
<path d="M6775 1510 c-28 -11 -44 -31 -51 -66 -8 -40 18 -70 81 -92 44 -16 50
-22 53 -48 4 -39 -17 -56 -60 -52 -23 2 -36 10 -43 26 -5 12 -18 22 -28 22
-24 0 -15 -37 15 -63 34 -28 68 -32 107 -11 65 35 64 120 -2 144 -62 22 -82
36 -85 58 -5 31 15 52 49 52 19 0 30 -6 34 -20 7 -21 45 -28 45 -9 0 18 -57
69 -77 68 -10 0 -27 -4 -38 -9z"/>
<path d="M7403 1505 c-91 -39 -70 -185 27 -189 16 -1 30 -2 30 -4 0 -2 -13
-23 -30 -47 -35 -51 -36 -55 -11 -55 22 0 100 102 126 165 21 49 6 99 -39 126
-36 22 -59 23 -103 4z m101 -47 c37 -52 6 -108 -58 -108 -39 0 -66 26 -66 63
0 43 25 67 71 67 28 0 42 -6 53 -22z"/>
<path d="M7772 1500 c-42 -26 -52 -54 -52 -144 0 -83 16 -114 70 -136 38 -16
97 -1 126 31 22 25 32 156 15 201 -22 58 -104 83 -159 48z m109 -30 c17 -9 19
-22 19 -100 0 -102 -10 -120 -66 -120 -68 0 -74 9 -74 115 0 79 3 96 18 104
22 14 78 14 103 1z"/>
<path d="M8040 1502 c-46 -23 -60 -53 -60 -137 0 -84 14 -114 60 -138 44 -22
96 -15 130 19 21 21 25 35 28 102 4 92 -7 125 -50 152 -41 25 -63 25 -108 2z
m101 -32 c17 -9 19 -22 19 -100 0 -102 -10 -120 -66 -120 -68 0 -74 9 -74 115
0 79 3 96 18 104 22 14 78 14 103 1z"/>
<path d="M8688 1509 c-14 -6 -33 -25 -42 -44 -20 -42 -20 -45 4 -45 13 0 20 7
20 18 0 26 20 42 53 42 44 0 67 -17 67 -50 0 -23 -16 -44 -80 -106 -44 -43
-80 -86 -80 -96 0 -16 10 -18 100 -18 93 0 100 1 100 20 0 18 -7 20 -75 20
l-75 0 37 33 c21 19 50 44 65 57 31 26 52 80 44 108 -16 50 -85 81 -138 61z"/>
<path d="M9072 1500 c-42 -26 -52 -54 -52 -143 0 -83 14 -111 67 -133 44 -19
94 -9 125 23 19 20 23 37 26 101 2 42 -1 89 -7 104 -12 33 -65 68 -101 68 -14
0 -40 -9 -58 -20z m109 -30 c17 -9 19 -22 19 -100 0 -102 -10 -120 -66 -120
-68 0 -74 9 -74 115 0 79 3 96 18 104 22 14 78 14 103 1z"/>
<path d="M9330 1502 c-46 -23 -60 -53 -60 -137 0 -85 14 -114 63 -139 47 -23
95 -15 128 20 21 22 24 37 28 110 4 97 -9 127 -64 150 -44 18 -53 18 -95 -4z
m101 -32 c17 -9 19 -22 19 -100 0 -102 -10 -120 -66 -120 -68 0 -74 9 -74 115
0 79 3 96 18 104 22 14 78 14 103 1z"/>
<path d="M3040 1361 c0 -144 1 -151 20 -151 18 0 20 8 22 128 l3 127 50 -127
c33 -86 55 -128 65 -128 10 0 32 43 65 128 l50 127 3 -127 c2 -120 4 -128 22
-128 19 0 20 7 20 151 l0 150 -32 -3 c-30 -3 -34 -8 -77 -115 -25 -62 -48
-113 -51 -113 -3 0 -26 51 -51 113 -43 107 -47 112 -77 115 l-32 3 0 -150z"/>
<path d="M3840 1360 c0 -143 1 -150 20 -150 18 0 20 7 20 65 l0 65 60 0 c53 0
60 2 60 20 0 18 -7 20 -60 20 l-60 0 0 45 0 45 60 0 c53 0 60 2 60 20 0 18 -7
20 -80 20 l-80 0 0 -150z"/>
<path d="M4300 1490 c0 -17 8 -19 69 -22 l68 -3 -58 -124 c-33 -68 -59 -125
-59 -128 0 -2 10 -3 21 -1 17 2 34 31 80 133 33 71 59 137 59 147 0 16 -10 18
-90 18 -83 0 -90 -2 -90 -20z"/>
<path d="M5350 1490 c0 -16 7 -20 30 -20 l30 0 0 -130 c0 -123 1 -130 20 -130
19 0 20 7 20 150 l0 150 -50 0 c-43 0 -50 -3 -50 -20z"/>
<path d="M8410 1490 c0 -16 7 -20 30 -20 l30 0 0 -130 c0 -123 1 -130 20 -130
19 0 20 7 20 150 l0 150 -50 0 c-43 0 -50 -3 -50 -20z"/>
<path d="M3470 1423 c-49 -25 -76 -81 -60 -128 33 -100 170 -110 224 -16 18
31 18 37 5 74 -25 73 -102 104 -169 70z m117 -45 c51 -48 16 -128 -56 -128
-53 0 -91 31 -91 75 0 66 96 101 147 53z"/>
<path d="M4040 1325 c0 -108 1 -115 20 -115 17 0 19 8 22 88 3 79 5 88 26 97
12 5 22 18 22 27 0 14 -4 16 -25 8 -15 -6 -26 -6 -30 0 -4 6 -13 10 -21 10
-11 0 -14 -22 -14 -115z"/>
<path d="M6993 1425 c-45 -19 -75 -70 -69 -115 11 -71 102 -118 167 -86 39 20
39 20 39 1 0 -8 9 -15 20 -15 19 0 20 7 20 115 0 108 -1 115 -20 115 -11 0
-20 -7 -20 -14 0 -13 -4 -13 -35 0 -42 17 -61 17 -102 -1z m114 -47 c33 -30
31 -80 -3 -107 -57 -45 -144 -12 -144 54 0 66 96 101 147 53z"/>
<path d="M4560 1405 c0 -18 5 -25 20 -25 15 0 20 7 20 25 0 18 -5 25 -20 25
-15 0 -20 -7 -20 -25z"/>
<path d="M5850 1405 c0 -18 5 -25 20 -25 15 0 20 7 20 25 0 18 -5 25 -20 25
-15 0 -20 -7 -20 -25z"/>
<path d="M7620 1405 c0 -18 5 -25 20 -25 15 0 20 7 20 25 0 18 -5 25 -20 25
-15 0 -20 -7 -20 -25z"/>
<path d="M8910 1405 c0 -18 5 -25 20 -25 15 0 20 7 20 25 0 18 -5 25 -20 25
-15 0 -20 -7 -20 -25z"/>
<path d="M3680 1320 c0 -18 7 -20 55 -20 48 0 55 2 55 20 0 18 -7 20 -55 20
-48 0 -55 -2 -55 -20z"/>
<path d="M5170 1320 c0 -18 7 -20 55 -20 48 0 55 2 55 20 0 18 -7 20 -55 20
-48 0 -55 -2 -55 -20z"/>
<path d="M8230 1320 c0 -18 7 -20 55 -20 48 0 55 2 55 20 0 18 -7 20 -55 20
-48 0 -55 -2 -55 -20z"/>
<path d="M4560 1235 c0 -18 5 -25 20 -25 15 0 20 7 20 25 0 18 -5 25 -20 25
-15 0 -20 -7 -20 -25z"/>
<path d="M5850 1235 c0 -18 5 -25 20 -25 15 0 20 7 20 25 0 18 -5 25 -20 25
-15 0 -20 -7 -20 -25z"/>
<path d="M6482 1215 c1 -25 5 -45 8 -45 16 0 30 27 30 57 0 26 -4 33 -20 33
-17 0 -19 -6 -18 -45z"/>
<path d="M7620 1235 c0 -18 5 -25 20 -25 15 0 20 7 20 25 0 18 -5 25 -20 25
-15 0 -20 -7 -20 -25z"/>
<path d="M8910 1235 c0 -18 5 -25 20 -25 15 0 20 7 20 25 0 18 -5 25 -20 25
-15 0 -20 -7 -20 -25z"/>
<path d="M4400 1002 c-46 -23 -60 -53 -60 -137 0 -84 14 -114 60 -138 44 -22
96 -15 130 19 21 21 25 35 28 102 4 92 -7 125 -50 152 -41 25 -63 25 -108 2z
m101 -32 c17 -9 19 -22 19 -100 0 -102 -10 -120 -66 -120 -68 0 -74 10 -74
112 0 75 3 93 18 104 21 16 76 18 103 4z"/>
<path d="M5042 993 c-18 -45 -92 -289 -92 -302 0 -6 4 -11 9 -11 9 0 111 304
111 329 0 21 -18 11 -28 -16z"/>
<path d="M5790 1002 c-46 -23 -60 -53 -60 -137 0 -84 14 -114 60 -138 44 -22
96 -15 130 19 21 21 25 35 28 103 5 94 -12 135 -63 157 -44 18 -53 18 -95 -4z
m101 -32 c17 -9 19 -22 19 -100 0 -102 -10 -120 -66 -120 -68 0 -74 9 -74 115
0 79 3 96 18 104 22 14 78 14 103 1z"/>
<path d="M6435 1011 c-26 -11 -51 -40 -59 -68 -6 -19 -3 -23 13 -23 14 0 21 6
21 18 0 10 5 23 12 30 17 17 74 15 92 -4 31 -31 19 -58 -64 -140 -109 -106
-107 -114 20 -114 93 0 100 1 100 20 0 18 -7 20 -72 20 l-73 0 62 59 c67 63
87 98 77 136 -12 50 -82 86 -129 66z"/>
<path d="M6810 1003 c-46 -24 -60 -54 -60 -138 0 -84 14 -114 60 -138 44 -22
96 -15 129 18 21 20 25 36 29 102 2 43 -1 90 -7 105 -21 55 -94 80 -151 51z
m101 -33 c17 -9 19 -22 19 -100 0 -103 -10 -120 -70 -120 -60 0 -70 17 -70
120 0 74 3 91 18 99 22 14 78 14 103 1z"/>
<path d="M7049 991 c-16 -16 -29 -34 -29 -40 0 -20 38 -12 43 9 6 24 48 27 67
5 20 -24 4 -65 -25 -65 -18 0 -25 -5 -25 -20 0 -15 7 -20 24 -20 49 0 75 -60
40 -94 -31 -32 -104 -11 -104 30 0 8 -9 14 -20 14 -24 0 -24 -3 -4 -46 37 -78
160 -60 179 27 7 29 -8 68 -31 82 -10 6 -9 13 3 38 19 38 4 81 -33 98 -38 17
-53 14 -85 -18z"/>
<path d="M3440 990 c0 -16 7 -20 30 -20 l30 0 0 -131 c0 -119 2 -130 18 -127
15 3 17 19 20 131 l3 127 29 0 c23 0 30 4 30 20 0 18 -7 20 -80 20 -73 0 -80
-2 -80 -20z"/>
<path d="M3870 860 c0 -143 1 -150 20 -150 19 0 20 7 20 150 0 143 -1 150 -20
150 -19 0 -20 -7 -20 -150z"/>
<path d="M4620 990 c0 -16 7 -20 30 -20 l30 0 0 -130 c0 -123 1 -130 20 -130
19 0 20 7 20 150 l0 150 -50 0 c-43 0 -50 -3 -50 -20z"/>
<path d="M5291 902 c-39 -59 -71 -116 -71 -125 0 -14 11 -17 70 -17 68 0 70
-1 70 -25 0 -18 5 -25 20 -25 15 0 20 7 20 25 0 16 6 25 15 25 8 0 15 9 15 20
0 11 -7 20 -15 20 -12 0 -15 18 -15 105 0 142 -13 142 -109 -3z m69 -27 l0
-75 -45 0 c-25 0 -45 3 -45 6 0 7 83 144 88 144 1 0 2 -34 2 -75z"/>
<path d="M5500 990 c0 -18 7 -20 70 -20 l69 0 -55 -117 c-74 -156 -71 -145
-44 -141 17 2 34 29 81 131 32 70 59 136 59 147 0 18 -7 20 -90 20 -83 0 -90
-1 -90 -20z"/>
<path d="M6181 902 c-39 -59 -71 -116 -71 -125 0 -14 11 -17 70 -17 68 0 70
-1 70 -25 0 -18 5 -25 20 -25 15 0 20 7 20 25 0 16 6 25 15 25 8 0 15 9 15 20
0 11 -7 20 -15 20 -12 0 -15 18 -15 105 0 142 -13 142 -109 -3z m69 -27 l0
-75 -50 0 -49 0 47 75 c26 41 48 75 50 75 1 0 2 -34 2 -75z"/>
<path d="M7520 860 c0 -143 1 -150 20 -150 18 0 20 7 20 65 l0 65 60 0 c53 0
60 2 60 20 0 18 -7 20 -60 20 l-60 0 0 45 0 45 60 0 c53 0 60 2 60 20 0 18 -7
20 -80 20 l-80 0 0 -150z"/>
<path d="M8630 990 c0 -16 7 -20 30 -20 l30 0 0 -130 c0 -123 1 -130 20 -130
19 0 20 7 20 150 l0 150 -50 0 c-43 0 -50 -3 -50 -20z"/>
<path d="M8881 939 c-7 -38 -10 -73 -7 -76 3 -4 17 -1 31 5 66 30 125 4 125
-56 0 -61 -89 -86 -129 -36 -11 14 -27 24 -35 22 -13 -3 -13 -7 0 -35 39 -80
177 -58 200 32 16 64 -60 135 -128 120 -29 -7 -30 -6 -25 16 4 13 7 27 7 32 0
4 27 7 60 7 53 0 60 2 60 20 0 18 -7 20 -73 20 l-74 0 -12 -71z"/>
<path d="M3655 926 c-68 -30 -91 -96 -55 -154 40 -65 129 -78 187 -27 35 29
23 45 -16 22 -40 -24 -102 -22 -129 3 -12 12 -22 25 -22 30 0 6 45 10 106 10
l106 0 -7 28 c-10 43 -34 73 -70 88 -42 17 -61 17 -100 0z m113 -42 c38 -27
25 -34 -63 -34 -47 0 -85 4 -85 9 0 19 45 41 85 41 22 0 51 -7 63 -16z"/>
<path d="M7775 926 c-48 -21 -70 -53 -70 -101 0 -81 85 -134 165 -102 34 13
40 13 40 1 0 -8 9 -14 20 -14 19 0 20 7 20 115 0 108 -1 115 -20 115 -11 0
-20 -7 -20 -14 0 -13 -4 -13 -35 0 -42 17 -61 17 -100 0z m111 -49 c79 -68
-37 -171 -120 -106 -19 15 -26 30 -26 54 0 67 90 100 146 52z"/>
<path d="M8000 934 c0 -3 14 -25 30 -49 17 -24 30 -49 30 -56 0 -6 -16 -34
-35 -60 -41 -57 -41 -59 -16 -59 12 0 29 17 46 46 15 25 30 42 34 37 4 -4 19
-25 35 -45 15 -21 34 -38 42 -38 20 0 18 4 -21 66 l-35 55 28 42 c45 66 45 67
23 67 -13 0 -28 -14 -43 -40 -13 -22 -25 -40 -28 -40 -3 0 -16 18 -30 40 -14
22 -33 40 -42 40 -10 0 -18 -3 -18 -6z"/>
<path d="M4100 905 c0 -18 5 -25 20 -25 15 0 20 7 20 25 0 18 -5 25 -20 25
-15 0 -20 -7 -20 -25z"/>
<path d="M8220 905 c0 -18 5 -25 20 -25 15 0 20 7 20 25 0 18 -5 25 -20 25
-15 0 -20 -7 -20 -25z"/>
<path d="M8450 820 c0 -18 7 -20 55 -20 48 0 55 2 55 20 0 18 -7 20 -55 20
-48 0 -55 -2 -55 -20z"/>
<path d="M3980 734 c0 -33 33 -30 38 4 3 17 -2 22 -17 22 -16 0 -21 -6 -21
-26z"/>
<path d="M4100 735 c0 -18 5 -25 20 -25 15 0 20 7 20 25 0 18 -5 25 -20 25
-15 0 -20 -7 -20 -25z"/>
<path d="M7282 715 c2 -25 5 -45 9 -45 15 0 29 28 29 57 0 26 -4 33 -20 33
-18 0 -20 -6 -18 -45z"/>
<path d="M8220 735 c0 -18 5 -25 20 -25 15 0 20 7 20 25 0 18 -5 25 -20 25
-15 0 -20 -7 -20 -25z"/>
<path d="M3540 495 c0 -18 5 -25 20 -25 15 0 20 7 20 25 0 18 -5 25 -20 25
-15 0 -20 -7 -20 -25z"/>
<path d="M4720 495 c0 -18 5 -25 20 -25 15 0 20 7 20 25 0 18 -5 25 -20 25
-15 0 -20 -7 -20 -25z"/>
<path d="M5310 495 c0 -18 5 -25 20 -25 15 0 20 7 20 25 0 18 -5 25 -20 25
-15 0 -20 -7 -20 -25z"/>
<path d="M5660 495 c0 -18 5 -25 20 -25 15 0 20 7 20 25 0 18 -5 25 -20 25
-15 0 -20 -7 -20 -25z"/>
<path d="M7490 492 c-34 -34 -37 -57 -15 -90 15 -20 14 -24 -6 -51 -16 -22
-20 -37 -15 -58 17 -66 80 -96 140 -68 55 26 71 99 30 140 -14 13 -14 17 0 37
9 12 16 30 16 40 0 29 -43 68 -82 75 -32 5 -41 1 -68 -25z m98 -24 c17 -17 15
-55 -4 -62 -42 -16 -84 1 -84 34 0 24 21 40 50 40 14 0 31 -5 38 -12z m6 -124
c37 -37 8 -94 -48 -94 -40 0 -56 15 -56 55 0 17 5 36 12 43 17 17 74 15 92 -4z"/>
<path d="M7784 513 c-12 -2 -32 -15 -45 -29 -22 -23 -24 -34 -24 -120 0 -87 2
-95 25 -118 50 -50 147 -37 177 24 15 30 17 148 3 184 -16 43 -80 71 -136 59z
m87 -43 c17 -9 19 -22 19 -100 0 -102 -10 -120 -66 -120 -68 0 -74 9 -74 115
0 79 3 96 18 104 22 14 78 14 103 1z"/>
<path d="M8420 495 c0 -18 5 -25 20 -25 15 0 20 7 20 25 0 18 -5 25 -20 25
-15 0 -20 -7 -20 -25z"/>
<path d="M3630 360 c0 -143 1 -150 20 -150 19 0 20 7 20 150 0 143 -1 150 -20
150 -19 0 -20 -7 -20 -150z"/>
<path d="M3960 490 c0 -16 7 -20 30 -20 l30 0 0 -130 c0 -123 1 -130 20 -130
19 0 20 7 20 130 l0 130 30 0 c23 0 30 4 30 20 0 18 -7 20 -80 20 -73 0 -80
-2 -80 -20z"/>
<path d="M4610 475 c0 -24 -5 -35 -15 -35 -8 0 -15 -9 -15 -20 0 -11 7 -20 15
-20 12 0 15 -17 15 -95 0 -88 1 -95 20 -95 19 0 20 7 20 95 0 78 3 95 15 95 8
0 15 9 15 20 0 11 -7 20 -15 20 -10 0 -15 11 -15 35 0 28 -4 35 -20 35 -16 0
-20 -7 -20 -35z"/>
<path d="M4820 360 c0 -143 1 -150 20 -150 19 0 20 7 20 150 0 143 -1 150 -20
150 -19 0 -20 -7 -20 -150z"/>
<path d="M6980 490 c0 -16 7 -20 30 -20 l30 0 0 -130 c0 -123 1 -130 20 -130
19 0 20 7 20 150 l0 150 -50 0 c-43 0 -50 -3 -50 -20z"/>
<path d="M7230 490 c0 -16 7 -20 30 -20 l30 0 0 -130 c0 -123 1 -130 20 -130
19 0 20 7 20 150 l0 150 -50 0 c-43 0 -50 -3 -50 -20z"/>
<path d="M8100 494 c-57 -20 -97 -57 -122 -113 -70 -153 117 -285 288 -204 46
22 43 34 -3 17 -59 -21 -149 -18 -200 7 -105 51 -98 194 12 256 47 27 137 31
188 9 71 -29 91 -123 38 -177 -29 -29 -64 -38 -76 -19 -3 5 1 37 10 71 17 64
13 87 -10 56 -11 -16 -14 -16 -22 -3 -14 25 -55 28 -90 7 -60 -38 -67 -136
-10 -162 26 -12 77 3 77 23 0 6 10 1 21 -11 27 -29 71 -23 111 16 84 80 45
199 -77 232 -53 14 -81 13 -135 -5z m100 -119 c10 -12 10 -24 1 -54 -14 -49
-32 -63 -73 -59 -30 3 -33 6 -36 42 -3 29 2 44 19 62 26 27 70 32 89 9z"/>
<path d="M9220 453 l0 -56 -21 19 c-27 25 -95 25 -132 1 -37 -24 -62 -77 -53
-112 17 -69 105 -112 167 -81 39 20 39 20 39 1 0 -8 9 -15 20 -15 19 0 20 7
20 150 0 143 -1 150 -20 150 -18 0 -20 -7 -20 -57z m-26 -74 c33 -26 35 -73 4
-106 -28 -30 -85 -31 -122 -2 -56 44 -18 129 59 129 18 0 44 -9 59 -21z"/>
<path d="M10010 475 c0 -24 -5 -35 -15 -35 -8 0 -15 -9 -15 -20 0 -11 7 -20
15 -20 12 0 15 -17 15 -95 0 -88 1 -95 20 -95 19 0 20 7 20 95 0 78 3 95 15
95 8 0 15 9 15 20 0 11 -7 20 -15 20 -10 0 -15 11 -15 35 0 28 -4 35 -20 35
-16 0 -20 -7 -20 -35z"/>
<path d="M2503 425 c-43 -18 -76 -71 -68 -109 18 -97 129 -135 203 -71 34 29
21 45 -17 22 -40 -24 -106 -22 -131 3 -11 11 -20 25 -20 30 0 6 42 10 106 10
l106 0 -7 28 c-10 43 -34 73 -70 88 -42 17 -61 17 -102 -1z m118 -44 c13 -11
21 -22 18 -26 -4 -3 -44 -5 -90 -3 l-84 3 23 23 c29 29 99 31 133 3z"/>
<path d="M2870 325 c0 -108 1 -115 20 -115 18 0 20 7 20 76 0 93 10 114 53
114 50 0 57 -14 57 -107 0 -76 2 -83 20 -83 18 0 20 7 20 76 0 93 10 114 53
114 50 0 57 -14 57 -107 0 -78 1 -83 21 -83 20 0 21 4 17 90 -3 77 -6 93 -26
112 -27 27 -91 31 -119 6 -17 -15 -20 -15 -42 3 -28 23 -60 24 -87 4 -25 -19
-34 -19 -34 0 0 8 -7 15 -15 15 -12 0 -15 -19 -15 -115z"/>
<path d="M3305 426 c-95 -42 -95 -162 0 -202 43 -18 63 -18 99 1 35 18 36 18
36 0 0 -8 9 -15 20 -15 19 0 20 7 20 115 0 108 -1 115 -20 115 -11 0 -20 -7
-20 -14 0 -13 -4 -13 -35 0 -42 17 -61 17 -100 0z m115 -50 c70 -75 -42 -170
-124 -105 -33 26 -35 73 -4 106 31 33 96 32 128 -1z"/>
<path d="M3540 325 c0 -108 1 -115 20 -115 19 0 20 7 20 115 0 108 -1 115 -20
115 -19 0 -20 -7 -20 -115z"/>
<path d="M4183 425 c-43 -18 -76 -71 -68 -109 18 -97 128 -135 202 -71 35 29
23 45 -16 22 -40 -24 -106 -22 -131 3 -11 11 -20 25 -20 30 0 6 42 10 106 10
l106 0 -7 28 c-10 43 -34 73 -70 88 -42 17 -61 17 -102 -1z m118 -44 c13 -11
21 -22 18 -26 -4 -3 -44 -5 -90 -3 l-84 3 23 23 c29 29 99 31 133 3z"/>
<path d="M4390 432 c0 -5 13 -26 30 -48 36 -47 37 -58 7 -98 -13 -17 -29 -41
-36 -53 -10 -20 -9 -23 6 -23 10 0 30 19 46 45 16 25 30 45 32 45 2 0 16 -20
32 -45 16 -25 36 -45 46 -45 23 0 22 3 -18 66 l-35 55 28 42 c45 66 45 67 23
67 -13 0 -28 -14 -43 -40 -13 -22 -25 -40 -28 -40 -3 0 -16 18 -30 40 -13 23
-32 40 -42 40 -10 0 -18 -4 -18 -8z"/>
<path d="M4720 325 c0 -108 1 -115 20 -115 19 0 20 7 20 115 0 108 -1 115 -20
115 -19 0 -20 -7 -20 -115z"/>
<path d="M4910 325 c0 -108 1 -115 20 -115 17 0 19 8 22 88 3 79 5 88 26 97
25 11 32 51 7 41 -8 -3 -22 -9 -30 -12 -8 -3 -15 -1 -15 5 0 6 -7 11 -15 11
-12 0 -15 -19 -15 -115z"/>
<path d="M5093 425 c-62 -27 -87 -99 -53 -153 40 -65 129 -78 187 -27 35 29
23 45 -16 22 -46 -27 -120 -18 -143 17 -16 23 -5 26 97 26 93 0 105 2 105 18
0 31 -40 83 -75 98 -42 17 -61 17 -102 -1z m118 -44 c13 -11 21 -22 18 -26 -4
-3 -44 -5 -90 -3 l-84 3 23 23 c29 29 99 31 133 3z"/>
<path d="M5310 325 c0 -108 1 -115 20 -115 19 0 20 7 20 115 0 108 -1 115 -20
115 -19 0 -20 -7 -20 -115z"/>
<path d="M5400 325 c0 -108 1 -115 20 -115 18 0 20 7 20 79 0 91 12 111 64
111 49 0 56 -14 56 -107 0 -76 2 -83 20 -83 18 0 20 6 19 73 -1 101 -8 119
-53 141 -34 17 -43 17 -74 6 -27 -9 -37 -10 -40 -1 -2 6 -10 11 -18 11 -11 0
-14 -22 -14 -115z"/>
<path d="M5660 325 c0 -108 1 -115 20 -115 19 0 20 7 20 115 0 108 -1 115 -20
115 -19 0 -20 -7 -20 -115z"/>
<path d="M5800 422 c-42 -21 -75 -80 -65 -119 16 -67 105 -109 166 -79 40 20
39 20 39 -2 0 -53 -101 -84 -137 -42 -21 24 -46 26 -41 4 6 -31 56 -59 104
-58 86 2 114 55 114 217 0 90 -1 97 -20 97 -11 0 -20 -7 -20 -15 0 -18 -8 -18
-40 0 -33 19 -58 18 -100 -3z m114 -43 c33 -26 35 -73 4 -106 -29 -31 -92 -32
-125 -1 -51 48 -12 128 62 128 18 0 44 -9 59 -21z"/>
<path d="M6040 368 c0 -91 21 -139 67 -151 23 -7 40 -5 62 6 26 13 31 13 31 1
0 -8 9 -14 20 -14 19 0 20 7 20 115 0 108 -1 115 -20 115 -18 0 -20 -7 -20
-78 0 -90 -14 -112 -68 -112 -42 0 -52 22 -52 114 0 69 -2 76 -20 76 -18 0
-20 -7 -20 -72z"/>
<path d="M6290 325 c0 -108 1 -115 20 -115 18 0 20 7 20 79 0 91 12 111 65
111 45 0 55 -20 55 -114 0 -71 1 -76 21 -76 21 0 21 4 17 91 -4 81 -7 94 -27
111 -35 27 -66 32 -101 14 -27 -13 -32 -13 -37 0 -3 7 -11 14 -19 14 -11 0
-14 -23 -14 -115z"/>
<path d="M6590 422 c-40 -20 -75 -80 -66 -116 17 -70 98 -110 168 -83 35 14
38 14 38 -2 0 -52 -102 -83 -137 -41 -21 24 -46 26 -41 4 10 -53 113 -76 165
-38 40 29 52 74 52 192 1 96 0 102 -19 102 -11 0 -20 -7 -20 -14 0 -13 -4 -13
-35 0 -45 18 -62 18 -105 -4z m114 -43 c56 -44 18 -129 -59 -129 -46 0 -85 34
-85 73 0 37 7 49 35 65 31 18 80 14 109 -9z"/>
<path d="M8420 325 c0 -108 1 -115 20 -115 19 0 20 7 20 115 0 108 -1 115 -20
115 -19 0 -20 -7 -20 -115z"/>
<path d="M8510 325 c0 -108 1 -115 20 -115 18 0 20 7 20 79 0 91 12 111 64
111 49 0 56 -14 56 -107 0 -78 1 -83 21 -83 21 0 21 4 17 91 -4 81 -7 94 -27
111 -35 27 -66 32 -101 14 -27 -13 -32 -13 -37 0 -3 7 -11 14 -19 14 -11 0
-14 -23 -14 -115z"/>
<path d="M8810 423 c-19 -10 -43 -33 -54 -52 -18 -31 -18 -37 -5 -74 39 -110
187 -111 228 -3 12 33 12 41 -2 71 -31 64 -105 90 -167 58z m114 -44 c33 -26
35 -73 4 -106 -28 -30 -85 -31 -122 -2 -56 44 -18 129 59 129 18 0 44 -9 59
-21z"/>
<path d="M9373 425 c-91 -39 -88 -163 4 -202 45 -18 93 -10 130 22 35 29 23
45 -16 22 -40 -24 -106 -22 -131 3 -11 11 -20 25 -20 30 0 6 42 10 106 10
l106 0 -7 28 c-10 43 -34 73 -70 88 -42 17 -61 17 -102 -1z m115 -41 c38 -27
25 -34 -63 -34 -47 0 -85 4 -85 9 0 19 45 41 85 41 22 0 51 -7 63 -16z"/>
<path d="M9770 423 c-44 -23 -76 -79 -66 -117 17 -70 105 -113 167 -82 39 20
39 20 39 1 0 -8 9 -15 20 -15 19 0 20 7 20 115 0 108 -1 115 -20 115 -11 0
-20 -7 -20 -15 0 -13 -4 -14 -22 -4 -37 20 -81 20 -118 2z m117 -45 c35 -38
37 -62 7 -97 -20 -25 -34 -31 -64 -31 -78 0 -118 74 -68 127 30 32 96 32 125
1z"/>
<path d="M443 394 c3 -20 13 -47 22 -61 13 -20 19 -22 31 -12 23 19 173 24
669 24 346 0 464 -3 510 -14 80 -18 114 -16 142 10 28 27 29 40 5 69 l-19 23
-31 -23 c-30 -23 -33 -23 -122 -10 -100 14 -661 8 -875 -10 -60 -5 -146 -12
-190 -16 l-80 -6 -12 31 c-8 22 -18 31 -33 31 -20 0 -22 -4 -17 -36z"/>
<path d="M3740 405 c0 -18 5 -25 20 -25 15 0 20 7 20 25 0 18 -5 25 -20 25
-15 0 -20 -7 -20 -25z"/>
<path d="M2710 320 c0 -18 7 -20 55 -20 48 0 55 2 55 20 0 18 -7 20 -55 20
-48 0 -55 -2 -55 -20z"/>
<path d="M3740 235 c0 -18 5 -25 20 -25 15 0 20 7 20 25 0 18 -5 25 -20 25
-15 0 -20 -7 -20 -25z"/>
<path d="M6840 235 c0 -18 5 -25 20 -25 15 0 20 7 20 25 0 18 -5 25 -20 25
-15 0 -20 -7 -20 -25z"/>
<path d="M9600 235 c0 -18 5 -25 20 -25 15 0 20 7 20 25 0 18 -5 25 -20 25
-15 0 -20 -7 -20 -25z"/>
</g>
</svg>
